<?xml version="1.0" encoding="utf-8"?>
<svg version="1.1" id="Layer_1" xmlns="http://www.w3.org/2000/svg" xmlns:xlink="http://www.w3.org/1999/xlink" x="0px" y="0px"
	 viewBox="0 0 48 48" style="enable-background:new 0 0 48 48;" xml:space="preserve">
<style type="text/css">
	.st0{fill:#231F20;}
	.st1{fill:#007bff;}
	.st2{fill:none;}
</style>
<path class="st0" d="M25,5c-7.7,0-14,6.3-14,14c0,10.5,14,26,14,26s14-15.5,14-26C39,11.3,32.7,5,25,5z M25,24c-2.8,0-5-2.2-5-5
	s2.2-5,5-5s5,2.2,5,5S27.8,24,25,24z"/>
<path class="st1" d="M24,4c-7.7,0-14,6.3-14,14c0,10.5,14,26,14,26s14-15.5,14-26C38,10.3,31.7,4,24,4z M24,23c-2.8,0-5-2.2-5-5
	s2.2-5,5-5s5,2.2,5,5S26.8,23,24,23z"/>
<path class="st2" d="M0,0h48v48H0V0z"/>
</svg>
