<?xml version="1.0" encoding="UTF-8" standalone="no"?>
<!-- Created with Inkscape (http://www.inkscape.org/) -->

<svg
   xmlns:dc="http://purl.org/dc/elements/1.1/"
   xmlns:cc="http://creativecommons.org/ns#"
   xmlns:rdf="http://www.w3.org/1999/02/22-rdf-syntax-ns#"
   xmlns:svg="http://www.w3.org/2000/svg"
   xmlns="http://www.w3.org/2000/svg"
   xmlns:sodipodi="http://sodipodi.sourceforge.net/DTD/sodipodi-0.dtd"
   xmlns:inkscape="http://www.inkscape.org/namespaces/inkscape"
   width="50"
   height="50"
   viewBox="0 0 13.229166 13.229167"
   version="1.1"
   id="svg8"
   inkscape:version="0.92.3 (2405546, 2018-03-11)"
   sodipodi:docname="info.svg">
  <defs
     id="defs2" />
  <sodipodi:namedview
     id="base"
     pagecolor="#ffffff"
     bordercolor="#666666"
     borderopacity="1.0"
     inkscape:pageopacity="0.0"
     inkscape:pageshadow="2"
     inkscape:zoom="11.2"
     inkscape:cx="19.795228"
     inkscape:cy="28.342868"
     inkscape:document-units="mm"
     inkscape:current-layer="layer9"
     showgrid="false"
     showguides="true"
     units="px"
     inkscape:window-width="1815"
     inkscape:window-height="1476"
     inkscape:window-x="1487"
     inkscape:window-y="122"
     inkscape:window-maximized="0" />
  <metadata
     id="metadata5">
    <rdf:RDF>
      <cc:Work
         rdf:about="">
        <dc:format>image/svg+xml</dc:format>
        <dc:type
           rdf:resource="http://purl.org/dc/dcmitype/StillImage" />
        <dc:title></dc:title>
      </cc:Work>
    </rdf:RDF>
  </metadata>
  <g
     inkscape:label="base"
     inkscape:groupmode="layer"
     id="layer1"
     transform="translate(0,-283.77082)"
     style="display:inline"
     sodipodi:insensitive="true" />
  <g
     inkscape:groupmode="layer"
     id="layer2"
     inkscape:label="circle"
     sodipodi:insensitive="true">
    <ellipse
       style="opacity:1;fill:#001f3f;fill-opacity:0;stroke:#706d6d;stroke-width:0;stroke-linecap:round;stroke-linejoin:round;stroke-miterlimit:4;stroke-dasharray:none;stroke-opacity:1"
       id="path4545"
       cx="6.5909605"
       cy="6.6027718"
       rx="6.4019713"
       ry="6.3665361" />
    <ellipse
       style="opacity:1;fill:#001f3f;fill-opacity:1;stroke:#706d6d;stroke-width:0;stroke-linecap:round;stroke-linejoin:round;stroke-miterlimit:4;stroke-dasharray:none;stroke-opacity:1"
       id="path4549"
       cx="6.6027713"
       cy="6.6027718"
       rx="6.4374065"
       ry="6.4610305" />
  </g>
  <g
     inkscape:groupmode="layer"
     id="layer3"
     inkscape:label="warning"
     sodipodi:insensitive="true"
     style="display:none">
    <g
       id="g4566"
       transform="matrix(0.37482639,0,0,0.42502635,2.1166667,1.0654204)">
      <path
         id="path4552"
         d="M 0,0 H 24 V 24 H 0 Z"
         inkscape:connector-curvature="0"
         style="fill:none" />
      <path
         id="path4554"
         d="M 1,21 H 23 L 12,2 Z m 12,-3 h -2 v -2 h 2 z m 0,-4 h -2 v -4 h 2 z"
         inkscape:connector-curvature="0"
         style="fill:#ffffff;fill-opacity:1;stroke:none;stroke-opacity:1" />
    </g>
  </g>
  <g
     inkscape:groupmode="layer"
     id="layer4"
     inkscape:label="insert_invitation"
     sodipodi:insensitive="true"
     style="display:none">
    <g
       id="g4604"
       transform="matrix(0.38243841,0,0,0.42480136,1.9812252,1.622879)">
      <path
         id="path4592"
         d="m 17,12 h -5 v 5 h 5 z M 16,1 V 3 H 8 V 1 H 6 V 3 H 5 C 3.9,3 3,3.9 3,5 v 14 c 0,1.1 0.9,2 2,2 h 14 c 1.1,0 2,-0.9 2,-2 V 5 C 21,3.9 20.1,3 19,3 H 18 V 1 Z m 3,18 H 5 V 8 h 14 z"
         class="st0"
         inkscape:connector-curvature="0"
         style="fill:#ffffff" />
      <path
         id="path4594"
         d="M 0,0 H 24 V 24 H 0 Z"
         class="st1"
         inkscape:connector-curvature="0"
         style="fill:none" />
    </g>
  </g>
  <g
     inkscape:groupmode="layer"
     id="layer5"
     inkscape:label="info"
     sodipodi:insensitive="true"
     style="display:inline">
    <text
       xml:space="preserve"
       style="font-style:italic;font-variant:normal;font-weight:normal;font-stretch:normal;font-size:4.93888855px;line-height:125%;font-family:sans-serif;-inkscape-font-specification:'sans-serif Italic';letter-spacing:0px;word-spacing:0px;fill:#000000;fill-opacity:1;stroke:none;stroke-width:0.26458332px;stroke-linecap:butt;stroke-linejoin:miter;stroke-opacity:1"
       x="5.5751486"
       y="7.6067705"
       id="text4609"><tspan
         sodipodi:role="line"
         id="tspan4607"
         x="5.5751486"
         y="11.976529"
         style="stroke-width:0.26458332px" /></text>
    <text
       xml:space="preserve"
       style="font-style:normal;font-variant:normal;font-weight:bold;font-stretch:normal;font-size:11.28888893px;line-height:125%;font-family:sans-serif;-inkscape-font-specification:'sans-serif Bold';letter-spacing:0px;word-spacing:0px;fill:#ffffff;fill-opacity:1;stroke:none;stroke-width:0.26458332px;stroke-linecap:butt;stroke-linejoin:miter;stroke-opacity:1"
       x="4.6774554"
       y="10.937686"
       id="text4613"><tspan
         sodipodi:role="line"
         id="tspan4611"
         x="4.6774554"
         y="10.937686"
         style="font-size:11.28888893px;fill:#ffffff;fill-opacity:1;stroke-width:0.26458332px">i</tspan></text>
  </g>
  <g
     inkscape:groupmode="layer"
     id="layer6"
     inkscape:label="done_outline"
     style="display:none"
     sodipodi:insensitive="true">
    <g
       id="g4632"
       transform="matrix(0.35514012,0,0,0.33446956,2.2584078,2.5418899)">
      <path
         id="path4620"
         d="M 0,0 H 24 V 24 H 0 Z"
         class="st0"
         inkscape:connector-curvature="0"
         style="fill:none" />
      <path
         id="path4622"
         d="M 19.8,5 21.2,6.4 8.4,19.2 2.8,13.6 4.2,12.2 8.4,16.4 19.8,5 M 19.8,2.2 8.4,13.5 4.2,9.3 0,13.6 8.4,22 24,6.4 c 0,0 -4.2,-4.2 -4.2,-4.2 z"
         class="st1"
         inkscape:connector-curvature="0"
         style="fill:#ffffff" />
    </g>
  </g>
  <g
     inkscape:groupmode="layer"
     id="layer7"
     inkscape:label="description"
     style="display:none"
     sodipodi:insensitive="true">
    <g
       id="g4651"
       transform="matrix(0.40041852,0,0,0.3836852,2.0221727,1.9276785)">
      <path
         id="path4639"
         d="M 0,0 H 24 V 24 H 0 Z"
         class="st0"
         inkscape:connector-curvature="0"
         style="fill:none" />
      <path
         id="path4641"
         d="M 14,2 H 6 C 4.9,2 4,2.9 4,4 v 16 c 0,1.1 0.9,2 2,2 h 12 c 1.1,0 2,-0.9 2,-2 V 8 Z m 2,16 H 8 v -2 h 8 z m 0,-4 H 8 v -2 h 8 z M 13,9 V 3.5 L 18.5,9 Z"
         class="st1"
         inkscape:connector-curvature="0"
         style="fill:#ffffff" />
    </g>
  </g>
  <g
     inkscape:groupmode="layer"
     id="layer8"
     inkscape:label="attache_file"
     style="display:none"
     sodipodi:insensitive="true">
    <g
       id="g4670"
       transform="matrix(0.36596757,0,0,0.36006169,2.1166667,2.2820312)">
      <path
         id="path4658"
         d="m 16.5,6 v 11.5 c 0,2.2 -1.8,4 -4,4 -2.2,0 -4,-1.8 -4,-4 V 5 c 0,-1.4 1.1,-2.5 2.5,-2.5 1.4,0 2.5,1.1 2.5,2.5 v 10.5 c 0,0.5 -0.4,1 -1,1 -0.6,0 -1,-0.5 -1,-1 V 6 H 10 v 9.5 c 0,1.4 1.1,2.5 2.5,2.5 1.4,0 2.5,-1.1 2.5,-2.5 V 5 C 15,2.8 13.2,1 11,1 8.8,1 7,2.8 7,5 v 12.5 c 0,3 2.5,5.5 5.5,5.5 3,0 5.5,-2.5 5.5,-5.5 V 6 Z"
         class="st0"
         inkscape:connector-curvature="0"
         style="fill:#ffffff" />
      <path
         id="path4660"
         d="M 0,0 H 24 V 24 H 0 Z"
         class="st1"
         inkscape:connector-curvature="0"
         style="fill:none" />
    </g>
  </g>
  <g
     inkscape:groupmode="layer"
     id="layer9"
     inkscape:label="assignment"
     style="display:none"
     sodipodi:insensitive="true">
    <g
       id="g4689"
       transform="matrix(0.36006169,0,0,0.36596757,2.2832125,2.4826343)">
      <path
         id="path4677"
         d="M 0,0 H 24 V 24 H 0 Z"
         class="st0"
         inkscape:connector-curvature="0"
         style="fill:none" />
      <path
         id="path4679"
         d="M 19,3 H 14.8 C 14.4,1.8 13.3,1 12,1 10.7,1 9.6,1.8 9.2,3 H 5 C 3.9,3 3,3.9 3,5 v 14 c 0,1.1 0.9,2 2,2 h 14 c 1.1,0 2,-0.9 2,-2 V 5 C 21,3.9 20.1,3 19,3 Z m -7,0 c 0.6,0 1,0.5 1,1 0,0.5 -0.4,1 -1,1 -0.6,0 -1,-0.4 -1,-1 0,-0.6 0.4,-1 1,-1 z m 2,14 H 7 v -2 h 7 z m 3,-4 H 7 V 11 H 17 Z M 17,9 H 7 V 7 h 10 z"
         class="st1"
         inkscape:connector-curvature="0"
         style="fill:#ffffff" />
    </g>
  </g>
  <style
     id="style4588"
     type="text/css">
	.st0{fill:#FFFFFF;}
	.st1{fill:none;}
</style>
  <style
     id="style4616"
     type="text/css">
	.st0{fill:none;}
	.st1{fill:#FFFFFF;}
</style>
  <style
     id="style4635"
     type="text/css">
	.st0{fill:none;}
	.st1{fill:#FFFFFF;}
</style>
  <style
     id="style4654"
     type="text/css">
	.st0{fill:#FFFFFF;}
	.st1{fill:none;}
</style>
  <style
     id="style4673"
     type="text/css">
	.st0{fill:none;}
	.st1{fill:#FFFFFF;}
</style>
</svg>
