<svg id="Layer_1" data-name="Layer 1" xmlns="http://www.w3.org/2000/svg" xmlns:xlink="http://www.w3.org/1999/xlink" viewBox="0 0 2317.28 2461.28"><defs><style>.cls-1,.cls-29{fill:none;}.cls-2,.cls-21{fill:#589cd5;}.cls-3{fill:#fff;}.cls-20,.cls-21,.cls-22,.cls-4{isolation:isolate;}.cls-22,.cls-4{font-size:18px;fill:#307fc2;font-family:Roboto-Medium, Roboto;font-weight:500;}.cls-23,.cls-4{letter-spacing:-0.02em;}.cls-5{letter-spacing:-0.04em;}.cls-6{letter-spacing:-0.02em;}.cls-7{fill:#e5f1fa;}.cls-8{fill:#b6d9f3;}.cls-9{fill:#97c7eb;}.cls-10{fill:#89bee7;}.cls-11{fill:#d3e8f8;}.cls-12,.cls-22{letter-spacing:-0.03em;}.cls-13{fill:#f9fdfe;}.cls-14{letter-spacing:-0.02em;}.cls-15{letter-spacing:0.01em;}.cls-16{clip-path:url(#clip-path);}.cls-17{clip-path:url(#clip-path-2);}.cls-18{letter-spacing:-0.03em;}.cls-19{fill:#a4cfef;}.cls-20{fill:#7ab5e3;opacity:0.3;}.cls-21{opacity:0.6;}.cls-24{letter-spacing:-0.04em;}.cls-25{fill:#b5d9f3;}.cls-26{clip-path:url(#clip-path-3);}.cls-27{clip-path:url(#clip-path-4);}.cls-28{fill:#231f20;}.cls-29{stroke:#414042;stroke-miterlimit:10;stroke-width:2px;}.cls-30{fill:#2b3990;}.cls-31{clip-path:url(#clip-path-5);}</style><clipPath id="clip-path"><rect id="Fondo" class="cls-1" x="773.32" y="1292.12" width="200" height="200" rx="4"/></clipPath><clipPath id="clip-path-2"><rect id="Fondo-2" data-name="Fondo" class="cls-1" x="773.7" y="1998.89" width="200" height="200" rx="4"/></clipPath><clipPath id="clip-path-3"><path id="Máscara" class="cls-1" d="M783.56,1670.65H854c.49,0,.9.63.9,1.41v48.61c0,.78-.41,1.41-.9,1.41H783.56c-.5,0-.9-.63-.9-1.41v-48.61C782.66,1671.28,783.06,1670.65,783.56,1670.65Z"/></clipPath><clipPath id="clip-path-4"><rect id="Máscara-2" data-name="Máscara" class="cls-1" x="1398.57" y="345.88" width="200" height="117.4"/></clipPath><clipPath id="clip-path-5"><rect id="Máscara-3" data-name="Máscara" class="cls-1" x="1373.87" y="1364.06" width="200" height="117.4"/></clipPath></defs><title>NRPTI Flow</title><g id="Conectores"><g id="Directa_Horizontal" data-name="Directa Horizontal"><polygon id="Rectángulo_14_-_copia_2" data-name="Rectángulo 14 - copia 2" class="cls-2" points="1082.75 1747.78 992.75 1747.78 992.75 1745.78 1082.75 1745.78 1082.75 1747.78"/><g id="Óvalo_4_-_copia_18" data-name="Óvalo 4 - copia 18"><g id="path-1"><circle class="cls-2" cx="1075.75" cy="1746.89" r="6"/><path class="cls-3" d="M1075.75,1741.89a5,5,0,1,1-5,5,5,5,0,0,1,5-5m0-2a7,7,0,1,0,7,7,7,7,0,0,0-7-7Z"/></g></g><g id="Oval-4-Copy-18"><g id="path-3"><circle class="cls-2" cx="999.75" cy="1746.89" r="6"/><path class="cls-3" d="M999.75,1741.89a5,5,0,1,1-5,5,5,5,0,0,1,5-5m0-2a7,7,0,1,0,7,7,7,7,0,0,0-7-7Z"/></g></g></g><g id="Vertical_directa" data-name="Vertical directa"><polygon id="Rectangle_14_-_copia_12" data-name="Rectangle 14 - copia 12" class="cls-2" points="873.79 1895.31 873.79 1985.31 871.79 1985.31 871.79 1895.31 873.79 1895.31"/><g id="Óvalo_4_-_copia_18-2" data-name="Óvalo 4 - copia 18"><g id="path-5"><circle class="cls-2" cx="872.79" cy="1902.42" r="6"/><path class="cls-3" d="M872.79,1897.42a5,5,0,1,1-5,5,5,5,0,0,1,5-5m0-2a7,7,0,1,0,7,7,7,7,0,0,0-7-7Z"/></g></g><g id="Óvalo_4_-_copia_18-3" data-name="Óvalo 4 - copia 18"><g id="path-7"><circle class="cls-2" cx="872.79" cy="1978.42" r="6"/><path class="cls-3" d="M872.79,1973.42a5,5,0,1,1-5,5,5,5,0,0,1,5-5m0-2a7,7,0,1,0,7,7,7,7,0,0,0-7-7Z"/></g></g></g></g><text id="Error" class="cls-4" transform="translate(201.16 884.93)">Er<tspan class="cls-5" x="15.86" y="0">r</tspan><tspan class="cls-6" x="21.55" y="0">or</tspan></text><g id="Tarjeta"><rect id="Fondo-3" data-name="Fondo" class="cls-7" x="119.94" y="653.99" width="200" height="200" rx="4"/><g id="Contenido"><path id="Texto" class="cls-8" d="M173.94,790a2,2,0,0,1,2-2h89a2,2,0,0,1,2,2v4a2,2,0,0,1-2,2H176a2,2,0,0,1-2-2Zm0,16a2,2,0,0,1,2-2h89a2,2,0,0,1,2,2v4a2,2,0,0,1-2,2H176a2,2,0,0,1-2-2Zm0-32a2,2,0,0,1,2-2h89a2,2,0,0,1,2,2v4a2,2,0,0,1-2,2H176a2,2,0,0,1-2-2Z"/><rect id="Título" class="cls-9" x="173.94" y="755.99" width="93" height="8" rx="2"/><path id="Icono" class="cls-10" d="M233.44,713.1l-2.27-2.27a1,1,0,0,0-1.42,0l-9.47,9.46-9.46-9.46a1,1,0,0,0-1.42,0l-2.28,2.27a1,1,0,0,0,0,1.42l9.47,9.47-9.47,9.46a1,1,0,0,0,0,1.42l2.28,2.28a1,1,0,0,0,1.42,0l9.46-9.47,9.47,9.47a1,1,0,0,0,1.42,0l2.27-2.28a1,1,0,0,0,0-1.42L224,724l9.46-9.47a1,1,0,0,0,0-1.42"/></g><g id="Barra_superior" data-name="Barra superior"><path id="Fondo-4" data-name="Fondo" class="cls-11" d="M123.94,654h192a4,4,0,0,1,4,4v10c0,2.21-.33,4,0,4h-199c.33,0-1-1.79-1-4V658A4,4,0,0,1,123.94,654Z"/><circle id="Óvalo" class="cls-10" cx="148.83" cy="662.53" r="3"/><circle id="Óvalo-2" data-name="Óvalo" class="cls-10" cx="138.83" cy="662.53" r="3"/><circle id="Óvalo-3" data-name="Óvalo" class="cls-10" cx="128.83" cy="662.53" r="3"/></g></g><text id="Resultados_de_la_búsqueda" data-name="Resultados de la búsqueda" class="cls-4" transform="translate(781.67 502.97)">All Reco<tspan class="cls-12" x="63.63" y="0">r</tspan><tspan x="69.46" y="0">ds - List/Find</tspan></text><g id="Tarjeta-2" data-name="Tarjeta"><rect id="Fondo-5" data-name="Fondo" class="cls-7" x="770.49" y="272.04" width="200" height="200" rx="4"/><g id="Contenido-2" data-name="Contenido"><g id="Noticias_3" data-name="Noticias 3"><path id="Texto-2" data-name="Texto" class="cls-8" d="M816.49,446a2,2,0,0,1,2-2h41a2,2,0,0,1,2,2v4a2,2,0,0,1-2,2h-41a2,2,0,0,1-2-2Zm57-2h85a2,2,0,0,1,2,2v4a2,2,0,0,1-2,2h-85a2,2,0,0,1-2-2v-4A2,2,0,0,1,873.49,444Z"/><rect id="Título-2" data-name="Título" class="cls-9" x="816.49" y="428.04" width="144" height="8" rx="2"/><rect id="Imagen" class="cls-10" x="780.49" y="427.04" width="26" height="24" rx="2"/></g><g id="Noticias_2" data-name="Noticias 2"><path id="Texto-3" data-name="Texto" class="cls-8" d="M816.49,406a2,2,0,0,1,2-2h41a2,2,0,0,1,2,2v4a2,2,0,0,1-2,2h-41a2,2,0,0,1-2-2Zm57-2h85a2,2,0,0,1,2,2v4a2,2,0,0,1-2,2h-85a2,2,0,0,1-2-2v-4A2,2,0,0,1,873.49,404Z"/><rect id="Título-3" data-name="Título" class="cls-9" x="816.49" y="388.04" width="144" height="8" rx="2"/><rect id="Imagen-2" data-name="Imagen" class="cls-10" x="780.49" y="387.04" width="26" height="24" rx="2"/></g><g id="Noticias_1" data-name="Noticias 1"><path id="Texto-4" data-name="Texto" class="cls-8" d="M816.49,366a2,2,0,0,1,2-2h41a2,2,0,0,1,2,2v4a2,2,0,0,1-2,2h-41a2,2,0,0,1-2-2Zm57-2h85a2,2,0,0,1,2,2v4a2,2,0,0,1-2,2h-85a2,2,0,0,1-2-2v-4A2,2,0,0,1,873.49,364Z"/><rect id="Título-4" data-name="Título" class="cls-9" x="816.49" y="348.04" width="144" height="8" rx="2"/><rect id="Imagen-3" data-name="Imagen" class="cls-10" x="780.49" y="347.04" width="26" height="24" rx="2"/></g><g id="Forma"><rect id="Botón" class="cls-2" x="901.49" y="309.04" width="59" height="20" rx="2"/><rect id="Entrada_-_salida" data-name="Entrada - salida" class="cls-13" x="780.49" y="309.04" width="111" height="20" rx="2"/></g></g><g id="Barra_superior-2" data-name="Barra superior"><path id="Fondo-6" data-name="Fondo" class="cls-11" d="M774.49,272h192a4,4,0,0,1,4,4v10c0,2.2-.33,3.66,0,4h-200V276A4,4,0,0,1,774.49,272Z"/><circle id="Óvalo-4" data-name="Óvalo" class="cls-10" cx="799.58" cy="280.57" r="3"/><circle id="Óvalo-5" data-name="Óvalo" class="cls-10" cx="789.58" cy="280.57" r="3"/><circle id="Óvalo-6" data-name="Óvalo" class="cls-10" cx="779.58" cy="280.57" r="3"/></g></g><text id="Resultados_de_la_búsqueda-2" data-name="Resultados de la búsqueda" class="cls-4" transform="translate(1096.16 502.97)">R<tspan class="cls-14" x="10.91" y="0">e</tspan><tspan x="20.13" y="0">view New Reco</tspan><tspan class="cls-12" x="137.8" y="0">r</tspan><tspan class="cls-6" x="143.63" y="0" xml:space="preserve">ds  </tspan><tspan x="12.32" y="18">(Filte</tspan><tspan class="cls-12" x="51.37" y="18">r</tspan><tspan class="cls-6" x="57.21" y="18">ed List view) </tspan></text><g id="Tarjeta-3" data-name="Tarjeta"><rect id="Fondo-7" data-name="Fondo" class="cls-7" x="1085.05" y="272.04" width="200" height="200" rx="4"/><g id="Contenido-3" data-name="Contenido"><g id="Noticias_3-2" data-name="Noticias 3"><path id="Texto-5" data-name="Texto" class="cls-8" d="M1131.05,446a2,2,0,0,1,2-2h41a2,2,0,0,1,2,2v4a2,2,0,0,1-2,2h-41a2,2,0,0,1-2-2Zm57-2h85a2,2,0,0,1,2,2v4a2,2,0,0,1-2,2h-85a2,2,0,0,1-2-2v-4A2,2,0,0,1,1188,444Z"/><rect id="Título-5" data-name="Título" class="cls-9" x="1131.05" y="428.04" width="144" height="8" rx="2"/><rect id="Imagen-4" data-name="Imagen" class="cls-10" x="1095.05" y="427.04" width="26" height="24" rx="2"/></g><g id="Noticias_2-2" data-name="Noticias 2"><path id="Texto-6" data-name="Texto" class="cls-8" d="M1131.05,406a2,2,0,0,1,2-2h41a2,2,0,0,1,2,2v4a2,2,0,0,1-2,2h-41a2,2,0,0,1-2-2Zm57-2h85a2,2,0,0,1,2,2v4a2,2,0,0,1-2,2h-85a2,2,0,0,1-2-2v-4A2,2,0,0,1,1188,404Z"/><rect id="Título-6" data-name="Título" class="cls-9" x="1131.05" y="388.04" width="144" height="8" rx="2"/><rect id="Imagen-5" data-name="Imagen" class="cls-10" x="1095.05" y="387.04" width="26" height="24" rx="2"/></g><g id="Noticias_1-2" data-name="Noticias 1"><path id="Texto-7" data-name="Texto" class="cls-8" d="M1131.05,366a2,2,0,0,1,2-2h41a2,2,0,0,1,2,2v4a2,2,0,0,1-2,2h-41a2,2,0,0,1-2-2Zm57-2h85a2,2,0,0,1,2,2v4a2,2,0,0,1-2,2h-85a2,2,0,0,1-2-2v-4A2,2,0,0,1,1188,364Z"/><rect id="Título-7" data-name="Título" class="cls-9" x="1131.05" y="348.04" width="144" height="8" rx="2"/><rect id="Imagen-6" data-name="Imagen" class="cls-10" x="1095.05" y="347.04" width="26" height="24" rx="2"/></g><g id="Forma-2" data-name="Forma"><rect id="Botón-2" data-name="Botón" class="cls-2" x="1216.05" y="309.04" width="59" height="20" rx="2"/><rect id="Entrada_-_salida-2" data-name="Entrada - salida" class="cls-13" x="1095.05" y="309.04" width="111" height="20" rx="2"/></g></g><g id="Barra_superior-3" data-name="Barra superior"><path id="Fondo-8" data-name="Fondo" class="cls-11" d="M1089.05,272h192a4,4,0,0,1,4,4v10c0,2.2-.34,3.66,0,4h-200V276A4,4,0,0,1,1089.05,272Z"/><circle id="Óvalo-7" data-name="Óvalo" class="cls-10" cx="1114.14" cy="280.57" r="3"/><circle id="Óvalo-8" data-name="Óvalo" class="cls-10" cx="1104.14" cy="280.57" r="3"/><circle id="Óvalo-9" data-name="Óvalo" class="cls-10" cx="1094.14" cy="280.57" r="3"/></g></g><text id="Resultados_de_la_búsqueda-3" data-name="Resultados de la búsqueda" class="cls-4" transform="translate(1109.65 1867.46)">R<tspan class="cls-14" x="10.91" y="0">e</tspan><tspan x="20.13" y="0">view New Reco</tspan><tspan class="cls-12" x="137.8" y="0">r</tspan><tspan class="cls-6" x="143.63" y="0" xml:space="preserve">ds  </tspan><tspan x="12.32" y="18">(Filte</tspan><tspan class="cls-12" x="51.37" y="18">r</tspan><tspan class="cls-6" x="57.21" y="18">ed List view) </tspan></text><g id="Tarjeta-4" data-name="Tarjeta"><rect id="Fondo-9" data-name="Fondo" class="cls-7" x="1098.53" y="1636.52" width="200" height="200" rx="4"/><g id="Contenido-4" data-name="Contenido"><g id="Noticias_3-3" data-name="Noticias 3"><path id="Texto-8" data-name="Texto" class="cls-8" d="M1144.53,1810.52a2,2,0,0,1,2-2h41a2,2,0,0,1,2,2v4a2,2,0,0,1-2,2h-41a2,2,0,0,1-2-2Zm57-2h85a2,2,0,0,1,2,2v4a2,2,0,0,1-2,2h-85a2,2,0,0,1-2-2v-4A2,2,0,0,1,1201.53,1808.52Z"/><rect id="Título-8" data-name="Título" class="cls-9" x="1144.53" y="1792.52" width="144" height="8" rx="2"/><rect id="Imagen-7" data-name="Imagen" class="cls-10" x="1108.53" y="1791.52" width="26" height="24" rx="2"/></g><g id="Noticias_2-3" data-name="Noticias 2"><path id="Texto-9" data-name="Texto" class="cls-8" d="M1144.53,1770.52a2,2,0,0,1,2-2h41a2,2,0,0,1,2,2v4a2,2,0,0,1-2,2h-41a2,2,0,0,1-2-2Zm57-2h85a2,2,0,0,1,2,2v4a2,2,0,0,1-2,2h-85a2,2,0,0,1-2-2v-4A2,2,0,0,1,1201.53,1768.52Z"/><rect id="Título-9" data-name="Título" class="cls-9" x="1144.53" y="1752.52" width="144" height="8" rx="2"/><rect id="Imagen-8" data-name="Imagen" class="cls-10" x="1108.53" y="1751.52" width="26" height="24" rx="2"/></g><g id="Noticias_1-3" data-name="Noticias 1"><path id="Texto-10" data-name="Texto" class="cls-8" d="M1144.53,1730.52a2,2,0,0,1,2-2h41a2,2,0,0,1,2,2v4a2,2,0,0,1-2,2h-41a2,2,0,0,1-2-2Zm57-2h85a2,2,0,0,1,2,2v4a2,2,0,0,1-2,2h-85a2,2,0,0,1-2-2v-4A2,2,0,0,1,1201.53,1728.52Z"/><rect id="Título-10" data-name="Título" class="cls-9" x="1144.53" y="1712.52" width="144" height="8" rx="2"/><rect id="Imagen-9" data-name="Imagen" class="cls-10" x="1108.53" y="1711.52" width="26" height="24" rx="2"/></g><g id="Forma-3" data-name="Forma"><rect id="Botón-3" data-name="Botón" class="cls-2" x="1229.53" y="1673.52" width="59" height="20" rx="2"/><rect id="Entrada_-_salida-3" data-name="Entrada - salida" class="cls-13" x="1108.53" y="1673.52" width="111" height="20" rx="2"/></g></g><g id="Barra_superior-4" data-name="Barra superior"><path id="Fondo-10" data-name="Fondo" class="cls-11" d="M1102.53,1636.52h192a4,4,0,0,1,4,4v10c0,2.21-.33,3.67,0,4h-200v-14A4,4,0,0,1,1102.53,1636.52Z"/><circle id="Óvalo-10" data-name="Óvalo" class="cls-10" cx="1127.62" cy="1645.06" r="3"/><circle id="Óvalo-11" data-name="Óvalo" class="cls-10" cx="1117.62" cy="1645.06" r="3"/><circle id="Óvalo-12" data-name="Óvalo" class="cls-10" cx="1107.62" cy="1645.06" r="3"/></g></g><text id="Iniciar_sesión" data-name="Iniciar sesión" class="cls-4" transform="translate(194.91 497.87)">Login</text><g id="Tarjeta-5" data-name="Tarjeta"><rect id="Fondo-11" data-name="Fondo" class="cls-7" x="118.74" y="266.94" width="200" height="200" rx="4"/><g id="Contenido-5" data-name="Contenido"><rect id="Botón-4" data-name="Botón" class="cls-2" x="168.74" y="403.94" width="100" height="20" rx="2"/><rect id="Entrada" class="cls-13" x="143.74" y="373.94" width="150" height="20" rx="2"/><rect id="Entrada-2" data-name="Entrada" class="cls-13" x="143.74" y="343.94" width="150" height="20" rx="2"/><rect id="Título-11" data-name="Título" class="cls-9" x="168.74" y="325.94" width="100" height="8" rx="2"/></g><g id="Barra_superior-5" data-name="Barra superior"><path id="Fondo-12" data-name="Fondo" class="cls-11" d="M122.74,266.94h192a4,4,0,0,1,4,4v10c0,2.21-.33,4,0,4h-199c-.66.33-1-1.79-1-4v-10A4,4,0,0,1,122.74,266.94Z"/><circle id="Óvalo-13" data-name="Óvalo" class="cls-10" cx="148.24" cy="275.48" r="3"/><circle id="Óvalo-14" data-name="Óvalo" class="cls-10" cx="138.24" cy="275.48" r="3"/><circle id="Óvalo-15" data-name="Óvalo" class="cls-10" cx="128.24" cy="275.48" r="3"/></g></g><text id="Panel_de_entrada" data-name="Panel de entrada" class="cls-4" transform="translate(1717.14 501.05)">Repo<tspan class="cls-15" x="39.98" y="0">r</tspan><tspan class="cls-6" x="46.42" y="0">ting and Metrics</tspan></text><g id="Tarjeta-6" data-name="Tarjeta"><rect id="Fondo-13" data-name="Fondo" class="cls-7" x="1697.13" y="270.27" width="200" height="200" rx="4"/><g id="Cuadrícula"><rect id="Forma-4" data-name="Forma" class="cls-10" x="1708.13" y="413.27" width="53" height="47" rx="2"/><rect id="Forma-5" data-name="Forma" class="cls-10" x="1835.13" y="383.27" width="53" height="77" rx="2"/><rect id="Forma-6" data-name="Forma" class="cls-10" x="1772.13" y="354.27" width="53" height="106" rx="2"/><rect id="Forma-7" data-name="Forma" class="cls-10" x="1708.13" y="355.27" width="53" height="47" rx="2"/><rect id="Forma-8" data-name="Forma" class="cls-10" x="1835.13" y="297.27" width="53" height="77" rx="2"/><rect id="Forma-9" data-name="Forma" class="cls-10" x="1708.13" y="297.27" width="117" height="47" rx="2"/></g><g id="Barra_superior-6" data-name="Barra superior"><path id="Fondo-14" data-name="Fondo" class="cls-11" d="M1701.13,270.27h192a4,4,0,0,1,4,4v14h-200v-14A4,4,0,0,1,1701.13,270.27Z"/><circle id="Óvalo-16" data-name="Óvalo" class="cls-10" cx="1726.07" cy="279.16" r="3"/><circle id="Óvalo-17" data-name="Óvalo" class="cls-10" cx="1716.07" cy="279.16" r="3"/><circle id="Óvalo-18" data-name="Óvalo" class="cls-10" cx="1706.07" cy="279.16" r="3"/></g></g><text id="Fuente" class="cls-4" transform="translate(792.14 1523.41)">News Items View/find</text><g id="Tarjeta-7" data-name="Tarjeta"><rect id="Fondo-15" data-name="Fondo" class="cls-7" x="774.32" y="1292.12" width="200" height="200" rx="4"/><g id="Número_4" data-name="Número 4"><g class="cls-16"><rect id="Texto-11" data-name="Texto" class="cls-8" x="830.32" y="1485.12" width="100" height="8" rx="2"/><rect id="Texto-12" data-name="Texto" class="cls-8" x="830.32" y="1471.12" width="134" height="8" rx="2"/><rect id="Título-12" data-name="Título" class="cls-9" x="830.32" y="1457.12" width="60" height="8" rx="2"/><rect id="Forma-10" data-name="Forma" class="cls-10" x="784.32" y="1457.12" width="36" height="36" rx="2"/></g></g><g id="Número_3" data-name="Número 3"><rect id="Texto-13" data-name="Texto" class="cls-8" x="830.32" y="1439.12" width="100" height="8" rx="2"/><rect id="Texto-14" data-name="Texto" class="cls-8" x="830.32" y="1425.12" width="134" height="8" rx="2"/><rect id="Título-13" data-name="Título" class="cls-9" x="830.32" y="1411.12" width="60" height="8" rx="2"/><rect id="Forma-11" data-name="Forma" class="cls-10" x="784.32" y="1411.12" width="36" height="36" rx="2"/></g><g id="Número_2" data-name="Número 2"><rect id="Texto-15" data-name="Texto" class="cls-8" x="830.32" y="1393.12" width="100" height="8" rx="2"/><rect id="Texto-16" data-name="Texto" class="cls-8" x="830.32" y="1379.12" width="134" height="8" rx="2"/><rect id="Título-14" data-name="Título" class="cls-9" x="830.32" y="1365.12" width="60" height="8" rx="2"/><rect id="Forma-12" data-name="Forma" class="cls-10" x="784.32" y="1365.12" width="36" height="36" rx="2"/></g><g id="Número_1" data-name="Número 1"><rect id="Texto-17" data-name="Texto" class="cls-8" x="830.32" y="1347.12" width="100" height="8" rx="2"/><rect id="Texto-18" data-name="Texto" class="cls-8" x="830.32" y="1333.12" width="134" height="8" rx="2"/><rect id="Título-15" data-name="Título" class="cls-9" x="830.32" y="1319.12" width="60" height="8" rx="2"/><rect id="Forma-13" data-name="Forma" class="cls-10" x="784.32" y="1319.12" width="36" height="36" rx="2"/></g><g id="Barra_superior-7" data-name="Barra superior"><path id="Fondo-16" data-name="Fondo" class="cls-11" d="M778.32,1292.12h192a4,4,0,0,1,4,4v14h-200v-14A4,4,0,0,1,778.32,1292.12Z"/><circle id="Óvalo-19" data-name="Óvalo" class="cls-10" cx="803.08" cy="1301.01" r="3"/><circle id="Óvalo-20" data-name="Óvalo" class="cls-10" cx="793.08" cy="1301.01" r="3"/><circle id="Óvalo-21" data-name="Óvalo" class="cls-10" cx="783.08" cy="1301.01" r="3"/></g></g><text id="Fuente-2" data-name="Fuente" class="cls-4" transform="translate(1101.8 1523.41)">News Items <tspan class="cls-12" x="96.18" y="0">E</tspan><tspan class="cls-6" x="105.87" y="0">dit/Add</tspan></text><g id="Tarjeta-8" data-name="Tarjeta"><rect id="Fondo-17" data-name="Fondo" class="cls-7" x="1083.98" y="1292.12" width="200" height="200" rx="4"/><g id="Número_2-2" data-name="Número 2"><path id="Título-16" data-name="Título" class="cls-9" d="M1230.59,1363.42h37.83c.74,0,1.35,1,1.35,2.3v4.61c0,1.27-.61,2.31-1.35,2.31h-37.83c-.75,0-1.36-1-1.36-2.31v-4.61C1229.23,1364.45,1229.84,1363.42,1230.59,1363.42Z"/></g><g id="Número_1-2" data-name="Número 1"><rect id="Texto-19" data-name="Texto" class="cls-3" x="1139.98" y="1347.12" width="100" height="8" rx="2"/><rect id="Texto-20" data-name="Texto" class="cls-3" x="1139.98" y="1333.12" width="134" height="8" rx="2"/><rect id="Título-17" data-name="Título" class="cls-3" x="1139.98" y="1319.12" width="60" height="8" rx="2"/><rect id="Forma-14" data-name="Forma" class="cls-10" x="1093.98" y="1319.12" width="36" height="36" rx="2"/></g><g id="Barra_superior-8" data-name="Barra superior"><path id="Fondo-18" data-name="Fondo" class="cls-11" d="M1088,1292.12h192a4,4,0,0,1,4,4v14H1084v-14A4,4,0,0,1,1088,1292.12Z"/><circle id="Óvalo-22" data-name="Óvalo" class="cls-10" cx="1112.74" cy="1301.01" r="3"/><circle id="Óvalo-23" data-name="Óvalo" class="cls-10" cx="1102.74" cy="1301.01" r="3"/><circle id="Óvalo-24" data-name="Óvalo" class="cls-10" cx="1092.74" cy="1301.01" r="3"/></g></g><text id="Fuente-3" data-name="Fuente" class="cls-4" transform="translate(828.01 2230.18)">News Items <tspan x="-7.86" y="18">(P</tspan><tspan class="cls-5" x="9.27" y="18">r</tspan><tspan class="cls-6" x="14.96" y="18">oject L</tspan><tspan class="cls-14" x="66.73" y="18">ev</tspan><tspan class="cls-6" x="84.42" y="18">el)</tspan></text><g id="Tarjeta-9" data-name="Tarjeta"><rect id="Fondo-19" data-name="Fondo" class="cls-7" x="774.7" y="1998.89" width="200" height="200" rx="4"/><g id="Número_4-3" data-name="Número 4"><g class="cls-17"><rect id="Texto-21" data-name="Texto" class="cls-8" x="830.7" y="2191.89" width="100" height="8" rx="2"/><rect id="Texto-22" data-name="Texto" class="cls-8" x="830.7" y="2177.89" width="134" height="8" rx="2"/><rect id="Título-18" data-name="Título" class="cls-9" x="830.7" y="2163.89" width="60" height="8" rx="2"/><rect id="Forma-15" data-name="Forma" class="cls-10" x="784.7" y="2163.89" width="36" height="36" rx="2"/></g></g><g id="Número_3-2" data-name="Número 3"><rect id="Texto-23" data-name="Texto" class="cls-8" x="830.7" y="2145.89" width="100" height="8" rx="2"/><rect id="Texto-24" data-name="Texto" class="cls-8" x="830.7" y="2131.89" width="134" height="8" rx="2"/><rect id="Título-19" data-name="Título" class="cls-9" x="830.7" y="2117.89" width="60" height="8" rx="2"/><rect id="Forma-16" data-name="Forma" class="cls-10" x="784.7" y="2117.89" width="36" height="36" rx="2"/></g><g id="Número_2-3" data-name="Número 2"><rect id="Texto-25" data-name="Texto" class="cls-8" x="830.7" y="2099.89" width="100" height="8" rx="2"/><rect id="Texto-26" data-name="Texto" class="cls-8" x="830.7" y="2085.89" width="134" height="8" rx="2"/><rect id="Título-20" data-name="Título" class="cls-9" x="830.7" y="2071.89" width="60" height="8" rx="2"/><rect id="Forma-17" data-name="Forma" class="cls-10" x="784.7" y="2071.89" width="36" height="36" rx="2"/></g><g id="Número_1-3" data-name="Número 1"><rect id="Texto-27" data-name="Texto" class="cls-8" x="830.7" y="2053.89" width="100" height="8" rx="2"/><rect id="Texto-28" data-name="Texto" class="cls-8" x="830.7" y="2039.89" width="134" height="8" rx="2"/><rect id="Título-21" data-name="Título" class="cls-9" x="830.7" y="2025.89" width="60" height="8" rx="2"/><rect id="Forma-18" data-name="Forma" class="cls-10" x="784.7" y="2025.89" width="36" height="36" rx="2"/></g><g id="Barra_superior-9" data-name="Barra superior"><path id="Fondo-20" data-name="Fondo" class="cls-11" d="M778.7,1998.89h192a4,4,0,0,1,4,4v14h-200v-14A4,4,0,0,1,778.7,1998.89Z"/><circle id="Óvalo-25" data-name="Óvalo" class="cls-10" cx="803.46" cy="2007.79" r="3"/><circle id="Óvalo-26" data-name="Óvalo" class="cls-10" cx="793.46" cy="2007.79" r="3"/><circle id="Óvalo-27" data-name="Óvalo" class="cls-10" cx="783.46" cy="2007.79" r="3"/></g></g><text id="Pago_n._1" data-name="Pago n.º 1" class="cls-4" transform="translate(811.96 912.13)">Add New Reco<tspan class="cls-18" x="113.75" y="0">r</tspan><tspan x="119.59" y="0">d</tspan></text><g id="Tarjeta-10" data-name="Tarjeta"><rect id="Fondo-21" data-name="Fondo" class="cls-7" x="774.77" y="681.46" width="200" height="200" rx="4"/><rect id="Botón-5" data-name="Botón" class="cls-2" x="825.77" y="851.46" width="102" height="20" rx="2"/><g id="Tarjeta-11" data-name="Tarjeta"><path id="Fondo-22" data-name="Fondo" class="cls-19" d="M783.72,700.53H966.1a8.89,8.89,0,0,1,8.9,8.87V833.59a8.89,8.89,0,0,1-8.9,8.87H783.72a8.88,8.88,0,0,1-8.89-8.87V709.4A8.88,8.88,0,0,1,783.72,700.53Z"/><rect id="Entrada-3" data-name="Entrada" class="cls-13" x="879.77" y="800.46" width="75" height="20" rx="2"/><rect id="Entrada-4" data-name="Entrada" class="cls-13" x="794.77" y="800.46" width="75" height="20" rx="2"/><rect id="Entrada-5" data-name="Entrada" class="cls-13" x="794.77" y="770.46" width="160" height="20" rx="2"/><rect id="Entrada-6" data-name="Entrada" class="cls-13" x="879.77" y="741.23" width="75" height="20" rx="2"/><rect id="Entrada-7" data-name="Entrada" class="cls-13" x="794.77" y="741.23" width="75" height="20" rx="2"/><rect id="Entrada-8" data-name="Entrada" class="cls-13" x="794.77" y="711.23" width="160" height="20" rx="2"/></g><g id="Barra_superior-10" data-name="Barra superior"><path id="Fondo-23" data-name="Fondo" class="cls-20" d="M778.77,681.46h192a4,4,0,0,1,4,4v13h-200v-13A4,4,0,0,1,778.77,681.46Z"/><circle id="Óvalo-28" data-name="Óvalo" class="cls-21" cx="803.86" cy="690.75" r="3"/><circle id="Óvalo-29" data-name="Óvalo" class="cls-21" cx="793.86" cy="690.75" r="3"/><circle id="Óvalo-30" data-name="Óvalo" class="cls-21" cx="783.86" cy="690.75" r="3"/></g></g><text id="Pago_n._1-2" data-name="Pago n.º 1" class="cls-22" transform="translate(1101.05 912.13)">E<tspan class="cls-6" x="9.69" y="0">dit Existing Reco</tspan><tspan class="cls-18" x="138.36" y="0">r</tspan><tspan class="cls-23" x="144.2" y="0">d</tspan></text><g id="Tarjeta-12" data-name="Tarjeta"><rect id="Fondo-24" data-name="Fondo" class="cls-7" x="1079.62" y="681.46" width="200" height="200" rx="4"/><rect id="Botón-6" data-name="Botón" class="cls-2" x="1130.62" y="851.46" width="102" height="20" rx="2"/><g id="Tarjeta-13" data-name="Tarjeta"><path id="Fondo-25" data-name="Fondo" class="cls-19" d="M1088.57,700.53H1271a8.89,8.89,0,0,1,8.9,8.87V833.59a8.89,8.89,0,0,1-8.9,8.87H1088.57a8.88,8.88,0,0,1-8.89-8.87V709.4A8.88,8.88,0,0,1,1088.57,700.53Z"/><rect id="Entrada-9" data-name="Entrada" class="cls-13" x="1184.62" y="800.46" width="75" height="20" rx="2"/><rect id="Entrada-10" data-name="Entrada" class="cls-13" x="1099.62" y="800.46" width="75" height="20" rx="2"/><rect id="Entrada-11" data-name="Entrada" class="cls-13" x="1099.62" y="770.46" width="160" height="20" rx="2"/><rect id="Entrada-12" data-name="Entrada" class="cls-13" x="1184.62" y="741.23" width="75" height="20" rx="2"/><rect id="Entrada-13" data-name="Entrada" class="cls-13" x="1099.62" y="741.23" width="75" height="20" rx="2"/><rect id="Entrada-14" data-name="Entrada" class="cls-13" x="1099.62" y="711.23" width="160" height="20" rx="2"/></g><g id="Barra_superior-11" data-name="Barra superior"><path id="Fondo-26" data-name="Fondo" class="cls-20" d="M1083.62,681.46h192a4,4,0,0,1,4,4v13h-200v-13A4,4,0,0,1,1083.62,681.46Z"/><circle id="Óvalo-31" data-name="Óvalo" class="cls-21" cx="1108.71" cy="690.75" r="3"/><circle id="Óvalo-32" data-name="Óvalo" class="cls-21" cx="1098.71" cy="690.75" r="3"/><circle id="Óvalo-33" data-name="Óvalo" class="cls-21" cx="1088.71" cy="690.75" r="3"/></g></g><text id="Página_de_bienvenida" data-name="Página de bienvenida" class="cls-4" transform="translate(512.17 500.81)">Home</text><g id="Tarjeta-14" data-name="Tarjeta"><rect id="Fondo-27" data-name="Fondo" class="cls-7" x="436.68" y="269.16" width="200" height="200" rx="4"/><rect id="Contenido-6" data-name="Contenido" class="cls-10" x="541.68" y="386.16" width="85" height="73" rx="2"/><rect id="Contenido-7" data-name="Contenido" class="cls-10" x="446.68" y="386.16" width="85" height="73" rx="2"/><rect id="Contenido-8" data-name="Contenido" class="cls-10" x="446.68" y="296.16" width="180" height="80" rx="2"/><g id="Barra_superior-12" data-name="Barra superior"><path id="Fondo-28" data-name="Fondo" class="cls-20" d="M440.68,269.16h192a4,4,0,0,1,4,4v13h-200v-13A4,4,0,0,1,440.68,269.16Z"/><circle id="Óvalo-34" data-name="Óvalo" class="cls-21" cx="465.38" cy="278.41" r="3"/><circle id="Óvalo-35" data-name="Óvalo" class="cls-21" cx="455.38" cy="278.41" r="3"/><circle id="Óvalo-36" data-name="Óvalo" class="cls-21" cx="445.38" cy="278.41" r="3"/></g></g><text id="Cuadrícula_M" data-name="Cuadrícula M" class="cls-4" transform="translate(2012.09 502.85)">System Admin Misc ?</text><g id="Tarjeta-15" data-name="Tarjeta"><rect id="Fondo-29" data-name="Fondo" class="cls-7" x="1991.26" y="271.21" width="200" height="200" rx="4"/><g id="Cuadrícula-2" data-name="Cuadrícula"><rect id="Rectángulo" class="cls-10" x="2128.26" y="414.21" width="53" height="47" rx="2"/><rect id="Rectángulo-2" data-name="Rectángulo" class="cls-10" x="2065.26" y="414.21" width="53" height="47" rx="2"/><rect id="Rectángulo-3" data-name="Rectángulo" class="cls-10" x="2001.26" y="414.21" width="53" height="47" rx="2"/><rect id="Rectángulo-4" data-name="Rectángulo" class="cls-10" x="2128.26" y="356.21" width="53" height="47" rx="2"/><rect id="Rectángulo-5" data-name="Rectángulo" class="cls-10" x="2065.26" y="356.21" width="53" height="47" rx="2"/><rect id="Rectángulo-6" data-name="Rectángulo" class="cls-10" x="2001.26" y="356.21" width="53" height="47" rx="2"/><rect id="Rectángulo-7" data-name="Rectángulo" class="cls-10" x="2128.26" y="298.21" width="53" height="47" rx="2"/><rect id="Rectángulo-8" data-name="Rectángulo" class="cls-10" x="2065.26" y="298.21" width="53" height="47" rx="2"/><rect id="Rectángulo-9" data-name="Rectángulo" class="cls-10" x="2001.26" y="298.21" width="53" height="47" rx="2"/></g><g id="Barra_superior-13" data-name="Barra superior"><path id="Fondo-30" data-name="Fondo" class="cls-20" d="M1995.26,271.21h192a4,4,0,0,1,4,4v13h-200v-13A4,4,0,0,1,1995.26,271.21Z"/><circle id="Óvalo-37" data-name="Óvalo" class="cls-21" cx="2020.15" cy="280.45" r="3"/><circle id="Óvalo-38" data-name="Óvalo" class="cls-21" cx="2010.15" cy="280.45" r="3"/><circle id="Óvalo-39" data-name="Óvalo" class="cls-21" cx="2000.15" cy="280.45" r="3"/></g></g><text id="Perfil_detallado" data-name="Perfil detallado" class="cls-4" transform="translate(787.77 1867.24)">P<tspan class="cls-24" x="11.18" y="0">r</tspan><tspan x="16.87" y="0">oject View - List Find</tspan></text><g id="Tarjeta-16" data-name="Tarjeta"><rect id="Fondo-31" data-name="Fondo" class="cls-7" x="775.08" y="1636.4" width="200" height="200" rx="4"/><g id="Información"><rect id="Texto-29" data-name="Texto" class="cls-8" x="867.08" y="1708.4" width="80" height="8" rx="2"/><rect id="Texto-30" data-name="Texto" class="cls-25" x="867.08" y="1695.4" width="94" height="8" rx="2"/><rect id="Título-22" data-name="Título" class="cls-9" x="867.08" y="1682.4" width="50" height="8" rx="2"/></g><g id="Barra_superior-14" data-name="Barra superior"><path id="Fondo-32" data-name="Fondo" class="cls-11" d="M779.08,1636.4h192a4,4,0,0,1,4,4v13h-200v-13A4,4,0,0,1,779.08,1636.4Z"/><ellipse id="Óvalo-40" data-name="Óvalo" class="cls-10" cx="803.83" cy="1645.35" rx="3" ry="2.83"/><ellipse id="Óvalo-41" data-name="Óvalo" class="cls-10" cx="793.83" cy="1645.35" rx="3" ry="2.83"/><ellipse id="Óvalo-42" data-name="Óvalo" class="cls-10" cx="783.83" cy="1645.35" rx="3" ry="2.83"/></g><g id="Imagen_160_px" data-name="Imagen/160 px"><path id="Máscara-4" data-name="Máscara" class="cls-10" d="M783.56,1670.65H854c.49,0,.9.63.9,1.41v48.61c0,.78-.41,1.41-.9,1.41H783.56c-.5,0-.9-.63-.9-1.41v-48.61C782.66,1671.28,783.06,1670.65,783.56,1670.65Z"/><g id="Forma-19" data-name="Forma"><g class="cls-26"><path class="cls-19" d="M833.91,1694.18a1.09,1.09,0,0,0-1.53,0l-18.57,18.15a1.12,1.12,0,0,1-1.54,0l-11.52-11.27a1.13,1.13,0,0,0-1.55,0l-69.56,66.13,178.22,0Z"/></g></g></g></g><g id="Contenido-9" data-name="Contenido"><g id="Noticias_2-4" data-name="Noticias 2"><path id="Texto-31" data-name="Texto" class="cls-8" d="M816.91,1823.48a2,2,0,0,1,2-2h41a2,2,0,0,1,2,2v4a2,2,0,0,1-2,2h-41a2,2,0,0,1-2-2Zm57-2h85a2,2,0,0,1,2,2v4a2,2,0,0,1-2,2h-85a2,2,0,0,1-2-2v-4A2,2,0,0,1,873.91,1821.49Z"/><rect id="Título-23" data-name="Título" class="cls-9" x="816.91" y="1805.49" width="144" height="8" rx="2"/><rect id="Imagen-10" data-name="Imagen" class="cls-10" x="780.91" y="1804.49" width="26" height="24" rx="2"/></g><g id="Noticias_1-4" data-name="Noticias 1"><path id="Texto-32" data-name="Texto" class="cls-8" d="M816.91,1783.48a2,2,0,0,1,2-2h41a2,2,0,0,1,2,2v4a2,2,0,0,1-2,2h-41a2,2,0,0,1-2-2Zm57-2h85a2,2,0,0,1,2,2v4a2,2,0,0,1-2,2h-85a2,2,0,0,1-2-2v-4A2,2,0,0,1,873.91,1781.49Z"/><rect id="Título-24" data-name="Título" class="cls-9" x="816.91" y="1765.49" width="144" height="8" rx="2"/><rect id="Imagen-11" data-name="Imagen" class="cls-10" x="780.91" y="1764.49" width="26" height="24" rx="2"/></g><g id="Forma-20" data-name="Forma"><rect id="Botón-7" data-name="Botón" class="cls-2" x="901.91" y="1734.49" width="59" height="20" rx="2"/><rect id="Entrada_-_salida-4" data-name="Entrada - salida" class="cls-13" x="780.91" y="1734.49" width="111" height="20" rx="2"/></g></g><text id="Contactos" class="cls-4" transform="translate(1436.86 506.45)">Map View (TBD)</text><g id="Tarjeta-17" data-name="Tarjeta"><rect id="Fondo-33" data-name="Fondo" class="cls-7" x="1398.06" y="275.26" width="200" height="200" rx="4"/><rect id="Texto-33" data-name="Texto" class="cls-8" x="1543.06" y="330.28" width="45" height="8" rx="2"/><rect id="Texto-34" data-name="Texto" class="cls-8" x="1543.06" y="317.28" width="45" height="8" rx="2"/><rect id="Texto-35" data-name="Texto" class="cls-8" x="1476.06" y="330.28" width="45" height="8" rx="2"/><rect id="Texto-36" data-name="Texto" class="cls-8" x="1476.06" y="317.28" width="45" height="8" rx="2"/><rect id="Texto-37" data-name="Texto" class="cls-8" x="1408.06" y="330.28" width="45" height="8" rx="2"/><rect id="Texto-38" data-name="Texto" class="cls-8" x="1408.06" y="317.28" width="45" height="8" rx="2"/><rect id="Texto-39" data-name="Texto" class="cls-8" x="1447.55" y="299.9" width="100" height="8" rx="2"/><g id="Mapa"><g id="Ilustración_de_mapa" data-name="Ilustración de mapa"><rect id="Máscara-5" data-name="Máscara" class="cls-10" x="1398.57" y="345.88" width="200" height="117.4"/><g id="Mapa-2" data-name="Mapa"><g class="cls-27"><g id="Rectángulo-10" data-name="Rectángulo"><path class="cls-19" d="M1419.73,566.64l65.81-46a1.83,1.83,0,0,1,2.74.88l33.5,70.23a2.72,2.72,0,0,1-.74,3.31l-65.81,46a1.83,1.83,0,0,1-2.74-.88L1419,570A2.72,2.72,0,0,1,1419.73,566.64Z"/><path class="cls-19" d="M1376.23,475.45l65.81-46a1.84,1.84,0,0,1,2.74.89l33.5,70.23a2.72,2.72,0,0,1-.74,3.31l-65.81,46A1.83,1.83,0,0,1,1409,549l-33.5-70.23A2.71,2.71,0,0,1,1376.23,475.45Z"/><path class="cls-19" d="M1332.73,384.25l65.81-46a1.83,1.83,0,0,1,2.74.89l33.5,70.23a2.71,2.71,0,0,1-.74,3.3l-65.81,46a1.83,1.83,0,0,1-2.74-.89L1332,387.56A2.72,2.72,0,0,1,1332.73,384.25Z"/><path class="cls-19" d="M1513.37,530.56l65.81-46a1.83,1.83,0,0,1,2.74.89l23,48.22a2.71,2.71,0,0,1-.74,3.3l-65.81,46a1.84,1.84,0,0,1-2.74-.89l-23-48.22A2.71,2.71,0,0,1,1513.37,530.56Z"/><path class="cls-19" d="M1415.87,326.16l65.81-46a1.84,1.84,0,0,1,2.74.89l23,48.22a2.7,2.7,0,0,1-.74,3.3l-65.81,46a1.83,1.83,0,0,1-2.74-.89l-23-48.22A2.71,2.71,0,0,1,1415.87,326.16Z"/><path class="cls-19" d="M1448.37,394.29l65.81-46a1.83,1.83,0,0,1,2.74.88l56,117.4a2.72,2.72,0,0,1-.74,3.31l-65.81,46a1.83,1.83,0,0,1-2.74-.88l-56-117.4A2.72,2.72,0,0,1,1448.37,394.29Z"/><path class="cls-19" d="M1562.64,403.88l65.82-46a1.82,1.82,0,0,1,2.73.89l56,117.39a2.73,2.73,0,0,1-.73,3.31l-65.82,46a1.82,1.82,0,0,1-2.73-.88l-56-117.4A2.7,2.7,0,0,1,1562.64,403.88Z"/><path class="cls-19" d="M1498.14,268.67l65.82-46a1.82,1.82,0,0,1,2.73.89l56,117.4a2.72,2.72,0,0,1-.73,3.3l-65.82,46a1.82,1.82,0,0,1-2.73-.89l-56-117.4A2.69,2.69,0,0,1,1498.14,268.67Z"/></g></g></g></g><path id="Punto" class="cls-2" d="M1467.44,396.94a4,4,0,1,1,4.08-4,4.05,4.05,0,0,1-4.08,4m0-10.21a5.62,5.62,0,0,0-5.65,5.59c0,2.39,3.38,7.37,4.91,9.51a.92.92,0,0,0,1.48,0c1.53-2.14,4.91-7.12,4.91-9.51a5.62,5.62,0,0,0-5.65-5.59"/><path id="Punto-2" data-name="Punto" class="cls-2" d="M1510.33,380.6a4,4,0,1,1,4.08-4,4.05,4.05,0,0,1-4.08,4m0-10.21a5.62,5.62,0,0,0-5.65,5.59c0,2.39,3.38,7.37,4.92,9.5a.9.9,0,0,0,1.47,0c1.53-2.13,4.92-7.11,4.92-9.5a5.62,5.62,0,0,0-5.66-5.59"/><path id="Punto-3" data-name="Punto" class="cls-2" d="M1499.61,400a4,4,0,1,1,4.08-4,4.06,4.06,0,0,1-4.08,4m0-10.22a5.62,5.62,0,0,0-5.65,5.59c0,2.39,3.38,7.37,4.91,9.51a.92.92,0,0,0,1.48,0c1.53-2.14,4.91-7.12,4.91-9.51a5.62,5.62,0,0,0-5.65-5.59"/><path id="Punto-4" data-name="Punto" class="cls-2" d="M1560.38,372.43a4,4,0,1,1,4.08-4,4,4,0,0,1-4.08,4m0-10.21a5.62,5.62,0,0,0-5.66,5.59c0,2.39,3.39,7.37,4.92,9.5a.9.9,0,0,0,1.47,0c1.54-2.13,4.92-7.11,4.92-9.5a5.62,5.62,0,0,0-5.65-5.59"/><path id="Punto-5" data-name="Punto" class="cls-2" d="M1570.59,395.41a4,4,0,1,1,4.08-4,4.05,4.05,0,0,1-4.08,4m0-10.21a5.63,5.63,0,0,0-5.66,5.59c0,2.39,3.39,7.37,4.92,9.5a.91.91,0,0,0,1.48,0c1.53-2.13,4.91-7.11,4.91-9.5a5.62,5.62,0,0,0-5.65-5.59"/><path id="Punto-6" data-name="Punto" class="cls-2" d="M1554.25,406.14a4,4,0,1,1,4.08-4,4.06,4.06,0,0,1-4.08,4m0-10.22a5.63,5.63,0,0,0-5.66,5.59c0,2.39,3.39,7.37,4.92,9.51a.92.92,0,0,0,1.48,0c1.53-2.14,4.91-7.12,4.91-9.51a5.62,5.62,0,0,0-5.65-5.59"/><path id="Punto-7" data-name="Punto" class="cls-2" d="M1544,387.75a4,4,0,1,1,4.08-4,4,4,0,0,1-4.08,4m0-10.21a5.62,5.62,0,0,0-5.66,5.59c0,2.39,3.39,7.37,4.92,9.5a.9.9,0,0,0,1.47,0c1.54-2.13,4.92-7.11,4.92-9.5a5.62,5.62,0,0,0-5.65-5.59"/><path id="Punto-8" data-name="Punto" class="cls-2" d="M1511.87,438.82a4,4,0,1,1,4.08-4,4.07,4.07,0,0,1-4.08,4m0-10.22a5.62,5.62,0,0,0-5.66,5.59c0,2.39,3.39,7.37,4.92,9.51a.91.91,0,0,0,1.47,0c1.54-2.14,4.92-7.12,4.92-9.51a5.62,5.62,0,0,0-5.65-5.59"/><path id="Punto-9" data-name="Punto" class="cls-2" d="M1575.7,448a4,4,0,1,1,4.08-4,4.07,4.07,0,0,1-4.08,4m0-10.22a5.62,5.62,0,0,0-5.66,5.59c0,2.39,3.39,7.37,4.92,9.51a.91.91,0,0,0,1.47,0c1.54-2.14,4.92-7.12,4.92-9.51a5.62,5.62,0,0,0-5.65-5.59"/><path id="Punto-10" data-name="Punto" class="cls-2" d="M1410.76,364.26a4,4,0,1,1,4.08-4,4.05,4.05,0,0,1-4.08,4m0-10.21a5.62,5.62,0,0,0-5.65,5.59c0,2.39,3.38,7.37,4.91,9.5a.91.91,0,0,0,1.48,0c1.53-2.13,4.91-7.11,4.91-9.5a5.62,5.62,0,0,0-5.65-5.59"/></g><g id="Barra_superior-15" data-name="Barra superior"><path id="Fondo-34" data-name="Fondo" class="cls-11" d="M1402.06,275.26h192a4,4,0,0,1,4,4v14h-200v-14A4,4,0,0,1,1402.06,275.26Z"/><circle id="Óvalo-43" data-name="Óvalo" class="cls-10" cx="1427.15" cy="284.06" r="3"/><circle id="Óvalo-44" data-name="Óvalo" class="cls-10" cx="1417.15" cy="284.06" r="3"/><circle id="Óvalo-45" data-name="Óvalo" class="cls-10" cx="1407.15" cy="284.06" r="3"/></g></g><path class="cls-28" d="M119.42,100.23h4l15.27,24.15-.52.56V100.23h4.34v31.22h-4l-15.24-23.78.52-.56v24.34h-4.34Z"/><path class="cls-28" d="M150.23,100.21h4.38v31.26h-4.38Zm1.91,13.88H162.8a4.09,4.09,0,0,0,2.21-.6,4,4,0,0,0,1.49-1.71,6.38,6.38,0,0,0,0-5.09A3.94,3.94,0,0,0,165,105a4.1,4.1,0,0,0-2.22-.6H152.14v-4.17h10.49a9.7,9.7,0,0,1,4.75,1.12,7.77,7.77,0,0,1,3.18,3.17,10.44,10.44,0,0,1,0,9.47,7.85,7.85,0,0,1-3.19,3.17,9.67,9.67,0,0,1-4.73,1.12H152.14Zm8.51,3.2,4.36-1,8,15.17h-5.2Z"/><path class="cls-28" d="M182.57,130.35a9.7,9.7,0,0,1-3.81-4.08,13.26,13.26,0,0,1-1.35-6.12v-8.57a13.34,13.34,0,0,1,1.35-6.13,9.85,9.85,0,0,1,3.81-4.09,11.09,11.09,0,0,1,5.71-1.45,10.66,10.66,0,0,1,4.94,1.15,10.44,10.44,0,0,1,3.77,3.26,12.23,12.23,0,0,1,2,4.87h-4.49a7.09,7.09,0,0,0-1.36-2.61,6.85,6.85,0,0,0-2.25-1.77,6,6,0,0,0-8.25,2.89,8.9,8.9,0,0,0-.79,3.88v8.57a9,9,0,0,0,.79,3.87,6.11,6.11,0,0,0,2.24,2.59,6.18,6.18,0,0,0,3.35.91,6.35,6.35,0,0,0,4.91-2.3,6.86,6.86,0,0,0,1.36-2.71H199a12.08,12.08,0,0,1-2.06,4.88,10.65,10.65,0,0,1-3.78,3.26,10.79,10.79,0,0,1-4.92,1.14A11.09,11.09,0,0,1,182.57,130.35Z"/><path class="cls-28" d="M204.84,100.23h4.39v31.24h-4.39Zm2.13,0h17.94v4.17H207Zm0,13.65h15.58V118H207Zm0,13.42h17.94v4.17H207Z"/><path class="cls-28" d="M231.14,100.23h4.38v31.24h-4.38Zm3,27.07h7.07a7.47,7.47,0,0,0,5.36-1.79,6.61,6.61,0,0,0,1.9-5.06v-9.19a6.6,6.6,0,0,0-1.9-5.06,7.47,7.47,0,0,0-5.36-1.8H234.1v-4.17H241a14.51,14.51,0,0,1,6.43,1.31,9.18,9.18,0,0,1,4.06,3.83,12.28,12.28,0,0,1,1.39,6.06v8.85a12.34,12.34,0,0,1-1.39,6.06,9.13,9.13,0,0,1-4.07,3.82,14.45,14.45,0,0,1-6.44,1.31H234.1Z"/><path class="cls-28" d="M280.34,100.23h3.74l11.51,31.24h-4.72l-8.66-25.2-8.66,25.2h-4.73Zm-6.21,20.22h16.43v4.17H274.13Z"/><path class="cls-28" d="M300.32,100.23h4.38v31.24h-4.38Zm3,27.07h7.07a7.48,7.48,0,0,0,5.36-1.79,6.61,6.61,0,0,0,1.9-5.06v-9.19a6.6,6.6,0,0,0-1.9-5.06,7.49,7.49,0,0,0-5.36-1.8h-7.07v-4.17h6.94a14.51,14.51,0,0,1,6.43,1.31,9.18,9.18,0,0,1,4.06,3.83,12.28,12.28,0,0,1,1.39,6.06v8.85a12.34,12.34,0,0,1-1.39,6.06,9.13,9.13,0,0,1-4.07,3.82,14.45,14.45,0,0,1-6.44,1.31h-6.92Z"/><path class="cls-28" d="M351.22,100.23h4.1v31.24H351V108.08l.22,1.37-7.69,17.68h-3.05l-7.7-17.25.22-1.8v23.39h-4.28V100.23h4.11L342,120.86Z"/><path class="cls-28" d="M367.44,131.47h-4.39V100.23h4.39Z"/><path class="cls-28" d="M375.17,100.23h4l15.27,24.15-.52.56V100.23h4.34v31.22h-4L379,107.67l.52-.56v24.34h-4.34Z"/><path class="cls-28" d="M422.4,130.43a9,9,0,0,1-3.75-4,14.22,14.22,0,0,1-1.28-6.29V100.23h4.38v20.09a7.52,7.52,0,0,0,1.72,5.29,6.27,6.27,0,0,0,4.85,1.87,6.34,6.34,0,0,0,4.89-1.87,7.52,7.52,0,0,0,1.73-5.29V100.23h4.38v19.94a14.08,14.08,0,0,1-1.29,6.29,8.92,8.92,0,0,1-3.76,4,13.63,13.63,0,0,1-11.87,0Z"/><path class="cls-28" d="M450.88,131.36a16,16,0,0,1-3.77-1.28,16.26,16.26,0,0,1-3.28-2.15l2.73-3.35a12.48,12.48,0,0,0,3.93,2.32,13.86,13.86,0,0,0,4.67.77,9.36,9.36,0,0,0,5.26-1.26,4,4,0,0,0,1.87-3.55v0a3.73,3.73,0,0,0-.85-2.59,5.06,5.06,0,0,0-2.19-1.42,24.46,24.46,0,0,0-3.47-.85l-.14,0-.14,0-.32-.07a33.89,33.89,0,0,1-5.1-1.21,7.23,7.23,0,0,1-3.37-2.47,8.17,8.17,0,0,1-1.39-5.1v0a9,9,0,0,1,1.3-5,8.07,8.07,0,0,1,3.79-3.12,15,15,0,0,1,6-1.08,14.58,14.58,0,0,1,3.3.37,16.09,16.09,0,0,1,3.2,1.08,18.78,18.78,0,0,1,3.11,1.82l-2.5,3.48a14.33,14.33,0,0,0-3.55-2,10.35,10.35,0,0,0-3.56-.65,8.4,8.4,0,0,0-5,1.27,4.22,4.22,0,0,0-1.77,3.63v0a3.43,3.43,0,0,0,.91,2.53,5.58,5.58,0,0,0,2.28,1.37,36.43,36.43,0,0,0,3.79.91l.16,0,.16,0,.24,0,.23,0a26.33,26.33,0,0,1,4.74,1.37,7.38,7.38,0,0,1,3.18,2.57,8.16,8.16,0,0,1,1.28,4.85v0a8.66,8.66,0,0,1-1.35,4.89,8.48,8.48,0,0,1-3.93,3.09,16.12,16.12,0,0,1-6.19,1.06A20.3,20.3,0,0,1,450.88,131.36Z"/><path class="cls-28" d="M472.43,100.23h4.38v31.24h-4.38Zm2.13,0H492.5v4.17H474.56Zm0,13.65h15.57V118H474.56Zm0,13.42H492.5v4.17H474.56Z"/><path class="cls-28" d="M498.73,100.21h4.38v31.26h-4.38Zm1.91,13.88H511.3a4.11,4.11,0,0,0,2.21-.6,4,4,0,0,0,1.49-1.71,6.38,6.38,0,0,0,0-5.09,3.94,3.94,0,0,0-1.48-1.71,4.1,4.1,0,0,0-2.22-.6H500.64v-4.17h10.48a9.73,9.73,0,0,1,4.76,1.12,7.77,7.77,0,0,1,3.18,3.17,9.71,9.71,0,0,1,1.13,4.74,9.54,9.54,0,0,1-1.14,4.73,7.85,7.85,0,0,1-3.19,3.17,9.71,9.71,0,0,1-4.74,1.12H500.64Zm8.51,3.2,4.36-1,8,15.17h-5.2Z"/><path class="cls-28" d="M544.34,131.36a15.8,15.8,0,0,1-3.77-1.28,16.26,16.26,0,0,1-3.28-2.15l2.73-3.35A12.48,12.48,0,0,0,544,126.9a13.81,13.81,0,0,0,4.66.77,9.37,9.37,0,0,0,5.27-1.26,4,4,0,0,0,1.87-3.55v0a3.78,3.78,0,0,0-.85-2.59,5.12,5.12,0,0,0-2.19-1.42,24.81,24.81,0,0,0-3.47-.85l-.14,0-.14,0-.32-.07a33.76,33.76,0,0,1-5.11-1.21,7.21,7.21,0,0,1-3.36-2.47,8.17,8.17,0,0,1-1.4-5.1v0a9.13,9.13,0,0,1,1.3-5,8.1,8.1,0,0,1,3.8-3.12,15,15,0,0,1,6-1.08,14.58,14.58,0,0,1,3.3.37,16.09,16.09,0,0,1,3.2,1.08,18.3,18.3,0,0,1,3.1,1.82L557,106.66a14.51,14.51,0,0,0-3.55-2,10.4,10.4,0,0,0-3.56-.65,8.4,8.4,0,0,0-5,1.27,4.2,4.2,0,0,0-1.78,3.63v0a3.43,3.43,0,0,0,.92,2.53,5.54,5.54,0,0,0,2.27,1.37,36.73,36.73,0,0,0,3.8.91l.16,0,.16,0,.23,0,.24,0a26.33,26.33,0,0,1,4.74,1.37,7.38,7.38,0,0,1,3.18,2.57,8.16,8.16,0,0,1,1.28,4.85v0a8.59,8.59,0,0,1-1.36,4.89,8.45,8.45,0,0,1-3.92,3.09,16.17,16.17,0,0,1-6.2,1.06A20.2,20.2,0,0,1,544.34,131.36Z"/><path class="cls-28" d="M570.27,131.47h-4.38V100.23h4.38Z"/><path class="cls-28" d="M575.43,100.23h22v4.17h-22Zm8.83,2.56h4.38v28.68h-4.38Z"/><path class="cls-28" d="M601.77,100.23h4.38v31.24h-4.38Zm2.12,0h17.94v4.17H603.89Zm0,13.65h15.58V118H603.89Zm0,13.42h17.94v4.17H603.89Z"/><path class="cls-28" d="M650.51,100.23h4.11v31.24h-4.28V108.08l.22,1.37-7.69,17.68h-3.06l-7.69-17.25.22-1.8v23.39h-4.28V100.23h4.11l9.17,20.63Z"/><path class="cls-28" d="M670.43,100.23h3.74l11.51,31.24H681l-8.66-25.2-8.66,25.2h-4.73Zm-6.21,20.22h16.44v4.17H664.22Z"/><path class="cls-28" d="M690.41,100.23h4.38v31.24h-4.38Zm2.26,15h10a4.6,4.6,0,0,0,2.49-.67,4.38,4.38,0,0,0,1.66-1.89,6.31,6.31,0,0,0,.59-2.81,6.38,6.38,0,0,0-.59-2.84,4.47,4.47,0,0,0-1.66-1.9,4.6,4.6,0,0,0-2.49-.68h-10v-4.17h9.84a9.85,9.85,0,0,1,4.92,1.2,8.25,8.25,0,0,1,3.29,3.36,11.27,11.27,0,0,1,0,10,8.2,8.2,0,0,1-3.29,3.34,10,10,0,0,1-4.92,1.18h-9.84Z"/><path class="cls-28" d="M729.83,96.54H734v41.94h-4.17Zm2.15,0H738v3.95H732Zm0,38H738v4H732Z"/><path class="cls-28" d="M742.55,100.23h4.39v31.24h-4.39Zm3,27.07h7.07a7.5,7.5,0,0,0,5.36-1.79,6.65,6.65,0,0,0,1.9-5.06v-9.19a6.63,6.63,0,0,0-1.9-5.06,7.5,7.5,0,0,0-5.36-1.8h-7.07v-4.17h6.94a14.5,14.5,0,0,1,6.42,1.31,9.13,9.13,0,0,1,4.06,3.83,12.28,12.28,0,0,1,1.4,6.06v8.85a12.34,12.34,0,0,1-1.4,6.06,9.13,9.13,0,0,1-4.07,3.82,14.41,14.41,0,0,1-6.43,1.31h-6.92Z"/><path class="cls-28" d="M771,100.21h4.38v31.26H771Zm1.91,13.88h10.66a4.09,4.09,0,0,0,2.21-.6,4,4,0,0,0,1.49-1.71,6.38,6.38,0,0,0,0-5.09,3.94,3.94,0,0,0-1.48-1.71,4.1,4.1,0,0,0-2.22-.6H772.91v-4.17H783.4a9.7,9.7,0,0,1,4.75,1.12,7.77,7.77,0,0,1,3.18,3.17,10.44,10.44,0,0,1,0,9.47,7.85,7.85,0,0,1-3.19,3.17,9.67,9.67,0,0,1-4.73,1.12H772.91Zm8.51,3.2,4.36-1,8,15.17h-5.2Z"/><path class="cls-28" d="M807.11,100.23h3.74l11.52,31.24h-4.73L809,106.27l-8.66,25.2H795.6Zm-6.21,20.22h16.44v4.17H800.9Z"/><path class="cls-28" d="M827.09,100.23h4.39v31.24h-4.39Zm2.15,0h17.51v4.17H829.24Zm0,13.93h15.15v4.16H829.24Z"/><path class="cls-28" d="M849.76,100.23h22v4.17h-22Zm8.83,2.56H863v28.68h-4.38Z"/><path class="cls-28" d="M872,96.54h6.06v3.95H872Zm0,38h6.06v4H872Zm4-38h4.17v41.94h-4.17Z"/><rect class="cls-29" x="732.4" y="221.77" width="594.38" height="322.72"/><rect class="cls-29" x="732.4" y="631.6" width="592.34" height="322.72"/><path class="cls-30" d="M747.32,604.08h2l6.29,17h-2.58l-4.73-13.74-4.72,13.74H741Zm-3.38,11h9v2.28h-9Z"/><path class="cls-30" d="M759.56,620.75a3.68,3.68,0,0,1-1.43-1.69,6.53,6.53,0,0,1-.49-2.67v-2.68a6.77,6.77,0,0,1,.48-2.69,3.62,3.62,0,0,1,1.4-1.69,4,4,0,0,1,2.21-.58,3.67,3.67,0,0,1,2,.56,4.19,4.19,0,0,1,1.45,1.58l-.25,2.49a2.87,2.87,0,0,0-.28-1.33,2,2,0,0,0-.81-.83,2.63,2.63,0,0,0-1.3-.29,2.28,2.28,0,0,0-1.83.74,3,3,0,0,0-.65,2.07v2.65a2.91,2.91,0,0,0,.65,2,2.3,2.3,0,0,0,1.83.73,2.63,2.63,0,0,0,1.3-.3,2,2,0,0,0,.81-.86,3,3,0,0,0,.28-1.35l.17,2.56a3.52,3.52,0,0,1-1.19,1.52,3.38,3.38,0,0,1-2,.6A4.25,4.25,0,0,1,759.56,620.75Zm5.34-16.67h2.39v17H764.9Z"/><path class="cls-30" d="M772.5,620.75a3.62,3.62,0,0,1-1.43-1.69,6.52,6.52,0,0,1-.5-2.67v-2.68a6.6,6.6,0,0,1,.49-2.69,3.62,3.62,0,0,1,1.4-1.69,4,4,0,0,1,2.2-.58,3.7,3.7,0,0,1,2,.56,4.19,4.19,0,0,1,1.45,1.58l-.25,2.49a2.87,2.87,0,0,0-.28-1.33,1.93,1.93,0,0,0-.82-.83,2.56,2.56,0,0,0-1.29-.29,2.28,2.28,0,0,0-1.83.74,3,3,0,0,0-.65,2.07v2.65a2.91,2.91,0,0,0,.65,2,2.3,2.3,0,0,0,1.83.73,2.56,2.56,0,0,0,1.29-.3,2,2,0,0,0,.82-.86,3,3,0,0,0,.28-1.35l.16,2.56a3.38,3.38,0,0,1-1.19,1.52,3.34,3.34,0,0,1-2,.6A4.25,4.25,0,0,1,772.5,620.75Zm5.34-16.67h2.39v17h-2.39Z"/><path class="cls-30" d="M784.16,624.36h-2.29l7.91-22.29h2.29Z"/><path class="cls-30" d="M793.18,604.08h2.39v17h-2.39Zm1.16,0h9.79v2.28h-9.79Zm0,7.45h8.5v2.27h-8.5Zm0,7.32h9.79v2.27h-9.79Z"/><path class="cls-30" d="M808.87,620.75a3.64,3.64,0,0,1-1.44-1.69,6.53,6.53,0,0,1-.49-2.67v-2.68a6.77,6.77,0,0,1,.48-2.69,3.68,3.68,0,0,1,1.4-1.69,4,4,0,0,1,2.21-.58,3.67,3.67,0,0,1,2,.56,4.19,4.19,0,0,1,1.45,1.58l-.25,2.49a2.87,2.87,0,0,0-.28-1.33,2,2,0,0,0-.81-.83,2.63,2.63,0,0,0-1.3-.29,2.28,2.28,0,0,0-1.83.74,3,3,0,0,0-.65,2.07v2.65a3,3,0,0,0,.65,2,2.3,2.3,0,0,0,1.83.73,2.63,2.63,0,0,0,1.3-.3,2,2,0,0,0,.81-.86,3,3,0,0,0,.28-1.35l.17,2.56a3.45,3.45,0,0,1-1.19,1.52,3.37,3.37,0,0,1-2,.6A4.2,4.2,0,0,1,808.87,620.75Zm5.33-16.67h2.39v17H814.2Z"/><path class="cls-30" d="M820.23,604.08h2.39v2.4h-2.39Zm0,4.88h2.39v12.16h-2.39Z"/><path class="cls-30" d="M825.31,609h5.49v2.16h-5.49Zm1.94,11.41a3.7,3.7,0,0,1-.68-2.41V605.42H829V618a1.21,1.21,0,0,0,.17.69.61.61,0,0,0,.52.24h1.15v2.27h-1.39A2.68,2.68,0,0,1,827.25,620.37Z"/><path class="cls-30" d="M840.76,604.08h2.39v17h-2.39Zm1.23,8.16h5.45a2.56,2.56,0,0,0,1.36-.36,2.47,2.47,0,0,0,.91-1,3.59,3.59,0,0,0,.32-1.54,3.64,3.64,0,0,0-.32-1.55,2.43,2.43,0,0,0-2.27-1.4H842v-2.28h5.37a5.32,5.32,0,0,1,2.68.66,4.53,4.53,0,0,1,1.8,1.83,6.19,6.19,0,0,1,0,5.48,4.57,4.57,0,0,1-1.8,1.82,5.42,5.42,0,0,1-2.68.64H842Z"/><path class="cls-30" d="M855.41,620.37a3.47,3.47,0,0,1-1.12-2.83,3.42,3.42,0,0,1,1-2.71,4.56,4.56,0,0,1,3.09-.9h3.45l.17,1.92h-3.61a2,2,0,0,0-1.4.42,1.61,1.61,0,0,0-.47,1.27,1.58,1.58,0,0,0,.62,1.37,3.17,3.17,0,0,0,1.87.44,5.31,5.31,0,0,0,2-.29,1,1,0,0,0,.68-.91l.24,1.71a2.74,2.74,0,0,1-.78.81,3.25,3.25,0,0,1-1.07.47,5.26,5.26,0,0,1-1.37.16A5.14,5.14,0,0,1,855.41,620.37Zm6.34-7a2.58,2.58,0,0,0-.64-1.85,2.38,2.38,0,0,0-1.81-.67,4.65,4.65,0,0,0-1.43.23,4,4,0,0,0-1.23.62l-1.75-1.2a4.63,4.63,0,0,1,1.82-1.29,6.61,6.61,0,0,1,2.52-.47,5.76,5.76,0,0,1,2.59.54,3.71,3.71,0,0,1,1.64,1.54,5,5,0,0,1,.56,2.45v7.81h-2.27Z"/><path class="cls-30" d="M869.23,620.75a3.64,3.64,0,0,1-1.44-1.69,6.7,6.7,0,0,1-.49-2.67v-2.68a6.77,6.77,0,0,1,.48-2.69,3.68,3.68,0,0,1,1.4-1.69,4,4,0,0,1,2.21-.58,3.7,3.7,0,0,1,2,.56,4.16,4.16,0,0,1,1.44,1.58l-.24,2.49a3,3,0,0,0-.28-1.33,1.93,1.93,0,0,0-.82-.83,2.59,2.59,0,0,0-1.29-.29,2.31,2.31,0,0,0-1.84.74,3,3,0,0,0-.65,2.07v2.65a3,3,0,0,0,.65,2,2.34,2.34,0,0,0,1.84.73,2.59,2.59,0,0,0,1.29-.3,2,2,0,0,0,.82-.86,3.13,3.13,0,0,0,.28-1.35l.16,2.56a3.45,3.45,0,0,1-1.19,1.52,3.37,3.37,0,0,1-2,.6A4.25,4.25,0,0,1,869.23,620.75Zm0,4.81a3.93,3.93,0,0,1-1.69-1.44l1.62-1.46a3.43,3.43,0,0,0,1.12,1,2.75,2.75,0,0,0,4.24-2.55V609H877v11.8a6.2,6.2,0,0,1-.62,2.87,4.17,4.17,0,0,1-1.78,1.82,6.06,6.06,0,0,1-2.83.62A5.68,5.68,0,0,1,869.28,625.56Z"/><path class="cls-30" d="M882.69,620.67a4.15,4.15,0,0,1-1.82-1.86,6.41,6.41,0,0,1-.63-3v-1.37a7.2,7.2,0,0,1,.6-3.08,4.38,4.38,0,0,1,1.75-1.95,5.49,5.49,0,0,1,2.77-.67,4.37,4.37,0,0,1,2.6.77,4.69,4.69,0,0,1,1.65,2.2,9.39,9.39,0,0,1,.57,3.46V616H882v-1.92h5.93a4.09,4.09,0,0,0-.76-2.31,2.19,2.19,0,0,0-1.78-.83,2.58,2.58,0,0,0-2.1.89,3.79,3.79,0,0,0-.75,2.52v1.55a3.17,3.17,0,0,0,.8,2.32,3,3,0,0,0,2.26.81,3.65,3.65,0,0,0,1.44-.3,4.12,4.12,0,0,0,1.28-.82l1.57,1.57a6.67,6.67,0,0,1-2,1.35,5.87,5.87,0,0,1-2.26.47A6.1,6.1,0,0,1,882.69,620.67Z"/><path class="cls-30" d="M734.51,191.26h2.39v17h-2.39Zm1.2,14.76h9.75v2.27h-9.75Z"/><path class="cls-30" d="M748,191.26h2.39v2.39H748Zm0,4.87h2.39v12.16H748Z"/><path class="cls-30" d="M756.34,208.26a7,7,0,0,1-3.28-1.69l1.42-1.74a8,8,0,0,0,2,1.12,5.33,5.33,0,0,0,1.92.38,4.13,4.13,0,0,0,2.13-.44,1.47,1.47,0,0,0,.71-1.32,1,1,0,0,0-.39-.88,2.08,2.08,0,0,0-1-.39c-.38-.07-.92-.13-1.62-.19H758l-.2,0h-.18a9.25,9.25,0,0,1-2-.35,2.67,2.67,0,0,1-1.36-.94,3.09,3.09,0,0,1-.55-2,4,4,0,0,1,.53-2.14,3.22,3.22,0,0,1,1.57-1.29,7.05,7.05,0,0,1,2.61-.43,8.75,8.75,0,0,1,1.81.18,8,8,0,0,1,3.16,1.39L762,199.27a8.28,8.28,0,0,0-1.8-.88,5.6,5.6,0,0,0-1.73-.29,3.2,3.2,0,0,0-1.82.42,1.39,1.39,0,0,0-.61,1.24.84.84,0,0,0,.34.74,2,2,0,0,0,.87.33c.36,0,.86.1,1.5.14h.38l.07,0a9.5,9.5,0,0,1,2.17.34,3,3,0,0,1,1.51,1,3.46,3.46,0,0,1,.61,2.21,3.93,3.93,0,0,1-.56,2.17,3.39,3.39,0,0,1-1.7,1.3,8,8,0,0,1-2.84.43A9.28,9.28,0,0,1,756.34,208.26Z"/><path class="cls-30" d="M765.57,196.13h5.48v2.16h-5.48Zm1.94,11.41a3.65,3.65,0,0,1-.69-2.41V192.59h2.39v12.56a1.13,1.13,0,0,0,.18.69.6.6,0,0,0,.51.24h1.15v2.27h-1.38A2.67,2.67,0,0,1,767.51,207.54Z"/><path class="cls-30" d="M781,191.24h2.39v17H781Zm1,7.57h5.81a2.35,2.35,0,0,0,1.21-.32,2.14,2.14,0,0,0,.81-.94,3.45,3.45,0,0,0,0-2.77,2.06,2.06,0,0,0-.81-.93,2.22,2.22,0,0,0-1.21-.33h-5.81v-2.28h5.72a5.39,5.39,0,0,1,2.59.61,4.32,4.32,0,0,1,1.74,1.73,5.74,5.74,0,0,1,0,5.17,4.26,4.26,0,0,1-1.74,1.73,5.4,5.4,0,0,1-2.58.61h-5.72Zm4.64,1.75,2.38-.54,4.36,8.27H790.6Z"/><path class="cls-30" d="M798.05,207.84a4.25,4.25,0,0,1-1.82-1.86,6.41,6.41,0,0,1-.63-3v-1.37a7.05,7.05,0,0,1,.61-3.08,4.32,4.32,0,0,1,1.75-1.95,5.45,5.45,0,0,1,2.76-.67,4.4,4.4,0,0,1,2.61.77,4.74,4.74,0,0,1,1.64,2.2,9.39,9.39,0,0,1,.57,3.46v.79h-8.2v-1.92h5.93a4.09,4.09,0,0,0-.77-2.31,2.16,2.16,0,0,0-1.78-.83,2.61,2.61,0,0,0-2.1.89,3.88,3.88,0,0,0-.74,2.52v1.55a3.17,3.17,0,0,0,.79,2.32,3.06,3.06,0,0,0,2.27.81,3.72,3.72,0,0,0,1.44-.3,3.9,3.9,0,0,0,1.27-.82l1.57,1.57a6.63,6.63,0,0,1-2,1.35,5.91,5.91,0,0,1-2.26.47A6.14,6.14,0,0,1,798.05,207.84Z"/><path class="cls-30" d="M810.89,207.85a4.25,4.25,0,0,1-1.8-1.81,6.09,6.09,0,0,1-.62-2.85v-2a6,6,0,0,1,.62-2.82,4.26,4.26,0,0,1,1.8-1.79,6.08,6.08,0,0,1,2.84-.62,6.85,6.85,0,0,1,1.79.23,5.59,5.59,0,0,1,1.51.67,4.12,4.12,0,0,1,1.11,1.05l-1.72,1.55a3.82,3.82,0,0,0-1.21-.91,3.42,3.42,0,0,0-1.44-.31,2.91,2.91,0,0,0-2.15.77,3,3,0,0,0-.76,2.18v2a3,3,0,0,0,.76,2.22,2.82,2.82,0,0,0,2.15.79,3.32,3.32,0,0,0,1.45-.34,3.69,3.69,0,0,0,1.2-1l1.72,1.66a4.33,4.33,0,0,1-1.13,1,5.36,5.36,0,0,1-1.5.65,6.84,6.84,0,0,1-1.78.22A6.08,6.08,0,0,1,810.89,207.85Z"/><path class="cls-30" d="M822.73,207.85A4.05,4.05,0,0,1,821,206a6.31,6.31,0,0,1-.6-2.87v-2a6.19,6.19,0,0,1,.6-2.83,4.06,4.06,0,0,1,1.71-1.79,6.23,6.23,0,0,1,5.42,0,4.06,4.06,0,0,1,1.71,1.79,6.19,6.19,0,0,1,.6,2.83v2a6.17,6.17,0,0,1-.6,2.84,4,4,0,0,1-1.71,1.8,6.23,6.23,0,0,1-5.42,0Zm4.65-2.44a3.22,3.22,0,0,0,.68-2.2v-2a3.19,3.19,0,0,0-.68-2.19,2.83,2.83,0,0,0-3.88,0,3.2,3.2,0,0,0-.69,2.19v2a3.22,3.22,0,0,0,.69,2.2,2.78,2.78,0,0,0,3.88,0Z"/><path class="cls-30" d="M833.85,196.13h2.39v12.16h-2.39Zm5.9,2.3a2.77,2.77,0,0,0-1.12-.2,2.42,2.42,0,0,0-1.76.62,2.36,2.36,0,0,0-.63,1.75l-.24-2.35a4.39,4.39,0,0,1,1.45-1.69,3.45,3.45,0,0,1,2-.61,4.51,4.51,0,0,1,1.51.24,3.31,3.31,0,0,1,1.17.71L840.54,199A2,2,0,0,0,839.75,198.43Z"/><path class="cls-30" d="M845.44,207.93a3.72,3.72,0,0,1-1.44-1.7,6.53,6.53,0,0,1-.49-2.67v-2.68a6.81,6.81,0,0,1,.48-2.69,3.68,3.68,0,0,1,1.4-1.69,4,4,0,0,1,2.21-.58,3.64,3.64,0,0,1,2,.56,4.19,4.19,0,0,1,1.45,1.58l-.24,2.49a2.87,2.87,0,0,0-.29-1.33,1.86,1.86,0,0,0-.81-.83,2.63,2.63,0,0,0-1.3-.29,2.32,2.32,0,0,0-1.83.74,3,3,0,0,0-.65,2.07v2.65a3,3,0,0,0,.65,2,2.32,2.32,0,0,0,1.83.73,2.63,2.63,0,0,0,1.3-.3,1.93,1.93,0,0,0,.81-.86,3,3,0,0,0,.29-1.35l.16,2.56a3.45,3.45,0,0,1-1.19,1.52,3.37,3.37,0,0,1-2,.61A4.34,4.34,0,0,1,845.44,207.93Zm5.34-16.67h2.39v17h-2.39Z"/><path class="cls-30" d="M859.08,208.26a7.44,7.44,0,0,1-1.77-.63,7.1,7.1,0,0,1-1.51-1.06l1.42-1.74a8,8,0,0,0,2,1.12,5.33,5.33,0,0,0,1.92.38,4.18,4.18,0,0,0,2.13-.44,1.47,1.47,0,0,0,.71-1.32,1,1,0,0,0-.39-.88,2.08,2.08,0,0,0-1-.39c-.38-.07-.92-.13-1.62-.19h-.2l-.2,0h-.19a9.26,9.26,0,0,1-2-.35,2.63,2.63,0,0,1-1.36-.94,3.09,3.09,0,0,1-.55-2,4,4,0,0,1,.53-2.14,3.22,3.22,0,0,1,1.57-1.29,7,7,0,0,1,2.61-.43,8.82,8.82,0,0,1,1.81.18,8,8,0,0,1,3.16,1.39l-1.44,1.75a8.28,8.28,0,0,0-1.8-.88,5.65,5.65,0,0,0-1.73-.29,3.26,3.26,0,0,0-1.83.42,1.41,1.41,0,0,0-.61,1.24.85.85,0,0,0,.35.74,2,2,0,0,0,.87.33c.35,0,.85.1,1.5.14h.38l.07,0a9.6,9.6,0,0,1,2.17.34,3,3,0,0,1,1.51,1,3.52,3.52,0,0,1,.61,2.21,3.85,3.85,0,0,1-.57,2.17,3.32,3.32,0,0,1-1.69,1.3,8,8,0,0,1-2.84.43A9.28,9.28,0,0,1,859.08,208.26Z"/><g id="Conectores-2" data-name="Conectores"><g id="Directa_Horizontal-2" data-name="Directa Horizontal"><polygon id="Rectángulo_14_-_copia_2-2" data-name="Rectángulo 14 - copia 2" class="cls-2" points="427.6 1396.94 337.6 1396.94 337.6 1394.94 427.6 1394.94 427.6 1396.94"/><g id="Óvalo_4_-_copia_18-4" data-name="Óvalo 4 - copia 18"><g id="path-1-2" data-name="path-1"><circle class="cls-2" cx="420.6" cy="1396.05" r="6"/><path class="cls-3" d="M420.6,1391.05a5,5,0,1,1-5,5,5,5,0,0,1,5-5m0-2a7,7,0,1,0,7,7,7,7,0,0,0-7-7Z"/></g></g><g id="Oval-4-Copy-18-2" data-name="Oval-4-Copy-18"><g id="path-3-2" data-name="path-3"><circle class="cls-2" cx="344.6" cy="1396.05" r="6"/><path class="cls-3" d="M344.6,1391.05a5,5,0,1,1-5,5,5,5,0,0,1,5-5m0-2a7,7,0,1,0,7,7,7,7,0,0,0-7-7Z"/></g></g></g><g id="Directa_Horizontal-3" data-name="Directa Horizontal"><polygon id="Rectángulo_14_-_copia_2-3" data-name="Rectángulo 14 - copia 2" class="cls-2" points="426.07 374.64 336.07 374.64 336.07 372.64 426.07 372.64 426.07 374.64"/><g id="Óvalo_4_-_copia_18-5" data-name="Óvalo 4 - copia 18"><g id="path-1-3" data-name="path-1"><circle class="cls-2" cx="419.07" cy="373.75" r="6"/><path class="cls-3" d="M419.07,368.75a5,5,0,1,1-5,5,5,5,0,0,1,5-5m0-2a7,7,0,1,0,7,7,7,7,0,0,0-7-7Z"/></g></g><g id="Oval-4-Copy-18-3" data-name="Oval-4-Copy-18"><g id="path-3-3" data-name="path-3"><circle class="cls-2" cx="343.07" cy="373.75" r="6"/><path class="cls-3" d="M343.07,368.75a5,5,0,1,1-5,5,5,5,0,0,1,5-5m0-2a7,7,0,1,0,7,7,7,7,0,0,0-7-7Z"/></g></g></g><g id="Vertical_directa-2" data-name="Vertical directa"><polygon id="Rectangle_14_-_copia_12-2" data-name="Rectangle 14 - copia 12" class="cls-2" points="214.05 522.18 214.05 612.18 212.05 612.18 212.05 522.18 214.05 522.18"/><g id="Óvalo_4_-_copia_18-6" data-name="Óvalo 4 - copia 18"><g id="path-5-2" data-name="path-5"><circle class="cls-2" cx="213.05" cy="529.29" r="6"/><path class="cls-3" d="M213.05,524.29a5,5,0,1,1-5,5,5,5,0,0,1,5-5m0-2a7,7,0,1,0,7,7,7,7,0,0,0-7-7Z"/></g></g><g id="Óvalo_4_-_copia_18-7" data-name="Óvalo 4 - copia 18"><g id="path-7-2" data-name="path-7"><circle class="cls-2" cx="213.05" cy="605.29" r="6"/><path class="cls-3" d="M213.05,600.29a5,5,0,1,1-5,5,5,5,0,0,1,5-5m0-2a7,7,0,1,0,7,7,7,7,0,0,0-7-7Z"/></g></g></g><g id="Vertical_directa-3" data-name="Vertical directa"><polygon id="Rectangle_14_-_copia_12-3" data-name="Rectangle 14 - copia 12" class="cls-2" points="217.11 1538.5 217.11 1628.5 215.11 1628.5 215.11 1538.5 217.11 1538.5"/><g id="Óvalo_4_-_copia_18-8" data-name="Óvalo 4 - copia 18"><g id="path-5-3" data-name="path-5"><circle class="cls-2" cx="216.11" cy="1545.61" r="6"/><path class="cls-3" d="M216.11,1540.61a5,5,0,1,1-5,5,5,5,0,0,1,5-5m0-2a7,7,0,1,0,7,7,7,7,0,0,0-7-7Z"/></g></g><g id="Óvalo_4_-_copia_18-9" data-name="Óvalo 4 - copia 18"><g id="path-7-3" data-name="path-7"><circle class="cls-2" cx="216.11" cy="1621.61" r="6"/><path class="cls-3" d="M216.11,1616.61a5,5,0,1,1-5,5,5,5,0,0,1,5-5m0-2a7,7,0,1,0,7,7,7,7,0,0,0-7-7Z"/></g></g></g></g><text id="Error-2" data-name="Error" class="cls-4" transform="translate(201.16 1875.54)">Er<tspan class="cls-5" x="15.86" y="0">r</tspan><tspan class="cls-6" x="21.55" y="0">or</tspan></text><g id="Tarjeta-18" data-name="Tarjeta"><rect id="Fondo-35" data-name="Fondo" class="cls-7" x="119.94" y="1644.6" width="200" height="200" rx="4"/><g id="Contenido-10" data-name="Contenido"><path id="Texto-40" data-name="Texto" class="cls-8" d="M173.94,1780.6a2,2,0,0,1,2-2h89a2,2,0,0,1,2,2v4a2,2,0,0,1-2,2H176a2,2,0,0,1-2-2Zm0,16a2,2,0,0,1,2-2h89a2,2,0,0,1,2,2v4a2,2,0,0,1-2,2H176a2,2,0,0,1-2-2Zm0-32a2,2,0,0,1,2-2h89a2,2,0,0,1,2,2v4a2,2,0,0,1-2,2H176a2,2,0,0,1-2-2Z"/><rect id="Título-25" data-name="Título" class="cls-9" x="173.94" y="1746.6" width="93" height="8" rx="2"/><path id="Icono-2" data-name="Icono" class="cls-10" d="M233.44,1703.71l-2.27-2.28a1,1,0,0,0-1.42,0l-9.47,9.47-9.46-9.47a1,1,0,0,0-1.42,0l-2.28,2.28a1,1,0,0,0,0,1.42l9.47,9.46-9.47,9.47a1,1,0,0,0,0,1.42l2.28,2.27a1,1,0,0,0,1.42,0l9.46-9.46,9.47,9.46a1,1,0,0,0,1.42,0l2.27-2.27a1,1,0,0,0,0-1.42l-9.46-9.47,9.46-9.46a1,1,0,0,0,0-1.42"/></g><g id="Barra_superior-16" data-name="Barra superior"><path id="Fondo-36" data-name="Fondo" class="cls-11" d="M123.94,1644.6h192a4,4,0,0,1,4,4v10c0,2.21-.33,4,0,4h-199c.33,0-1-1.79-1-4v-10A4,4,0,0,1,123.94,1644.6Z"/><circle id="Óvalo-46" data-name="Óvalo" class="cls-10" cx="148.83" cy="1653.14" r="3"/><circle id="Óvalo-47" data-name="Óvalo" class="cls-10" cx="138.83" cy="1653.14" r="3"/><circle id="Óvalo-48" data-name="Óvalo" class="cls-10" cx="128.83" cy="1653.14" r="3"/></g></g><text id="Iniciar_sesión-2" data-name="Iniciar sesión" class="cls-4" transform="translate(194.91 1516.06)">Login</text><g id="Tarjeta-19" data-name="Tarjeta"><rect id="Fondo-37" data-name="Fondo" class="cls-7" x="118.74" y="1285.12" width="200" height="200" rx="4"/><g id="Contenido-11" data-name="Contenido"><rect id="Botón-8" data-name="Botón" class="cls-2" x="168.74" y="1422.12" width="100" height="20" rx="2"/><rect id="Entrada-15" data-name="Entrada" class="cls-13" x="143.74" y="1392.12" width="150" height="20" rx="2"/><rect id="Entrada-16" data-name="Entrada" class="cls-13" x="143.74" y="1362.12" width="150" height="20" rx="2"/><rect id="Título-26" data-name="Título" class="cls-9" x="168.74" y="1344.12" width="100" height="8" rx="2"/></g><g id="Barra_superior-17" data-name="Barra superior"><path id="Fondo-38" data-name="Fondo" class="cls-11" d="M122.74,1285.12h192a4,4,0,0,1,4,4v10c0,2.21-.33,4,0,4h-199c-.66.33-1-1.79-1-4v-10A4,4,0,0,1,122.74,1285.12Z"/><circle id="Óvalo-49" data-name="Óvalo" class="cls-10" cx="148.24" cy="1293.66" r="3"/><circle id="Óvalo-50" data-name="Óvalo" class="cls-10" cx="138.24" cy="1293.66" r="3"/><circle id="Óvalo-51" data-name="Óvalo" class="cls-10" cx="128.24" cy="1293.66" r="3"/></g></g><text id="Panel_de_entrada-2" data-name="Panel de entrada" class="cls-4" transform="translate(1692.44 1519.23)">Repo<tspan class="cls-15" x="39.98" y="0">r</tspan><tspan class="cls-6" x="46.42" y="0">ting and Metrics</tspan></text><g id="Tarjeta-20" data-name="Tarjeta"><rect id="Fondo-39" data-name="Fondo" class="cls-7" x="1672.43" y="1288.45" width="200" height="200" rx="4"/><g id="Cuadrícula-3" data-name="Cuadrícula"><rect id="Forma-21" data-name="Forma" class="cls-10" x="1683.43" y="1431.45" width="53" height="47" rx="2"/><rect id="Forma-22" data-name="Forma" class="cls-10" x="1810.43" y="1401.45" width="53" height="77" rx="2"/><rect id="Forma-23" data-name="Forma" class="cls-10" x="1747.43" y="1372.45" width="53" height="106" rx="2"/><rect id="Forma-24" data-name="Forma" class="cls-10" x="1683.43" y="1373.45" width="53" height="47" rx="2"/><rect id="Forma-25" data-name="Forma" class="cls-10" x="1810.43" y="1315.45" width="53" height="77" rx="2"/><rect id="Forma-26" data-name="Forma" class="cls-10" x="1683.43" y="1315.45" width="117" height="47" rx="2"/></g><g id="Barra_superior-18" data-name="Barra superior"><path id="Fondo-40" data-name="Fondo" class="cls-11" d="M1676.43,1288.45h192a4,4,0,0,1,4,4v14h-200v-14A4,4,0,0,1,1676.43,1288.45Z"/><circle id="Óvalo-52" data-name="Óvalo" class="cls-10" cx="1701.37" cy="1297.35" r="3"/><circle id="Óvalo-53" data-name="Óvalo" class="cls-10" cx="1691.37" cy="1297.35" r="3"/><circle id="Óvalo-54" data-name="Óvalo" class="cls-10" cx="1681.37" cy="1297.35" r="3"/></g></g><text id="Página_de_bienvenida-2" data-name="Página de bienvenida" class="cls-4" transform="translate(512.17 1518.99)">Home</text><g id="Tarjeta-21" data-name="Tarjeta"><rect id="Fondo-41" data-name="Fondo" class="cls-7" x="436.68" y="1287.35" width="200" height="200" rx="4"/><rect id="Contenido-12" data-name="Contenido" class="cls-10" x="541.68" y="1404.35" width="85" height="73" rx="2"/><rect id="Contenido-13" data-name="Contenido" class="cls-10" x="446.68" y="1404.35" width="85" height="73" rx="2"/><rect id="Contenido-14" data-name="Contenido" class="cls-10" x="446.68" y="1314.35" width="180" height="80" rx="2"/><g id="Barra_superior-19" data-name="Barra superior"><path id="Fondo-42" data-name="Fondo" class="cls-20" d="M440.68,1287.35h192a4,4,0,0,1,4,4v13h-200v-13A4,4,0,0,1,440.68,1287.35Z"/><circle id="Óvalo-55" data-name="Óvalo" class="cls-21" cx="465.38" cy="1296.59" r="3"/><circle id="Óvalo-56" data-name="Óvalo" class="cls-21" cx="455.38" cy="1296.59" r="3"/><circle id="Óvalo-57" data-name="Óvalo" class="cls-21" cx="445.38" cy="1296.59" r="3"/></g></g><text id="Cuadrícula_M-2" data-name="Cuadrícula M" class="cls-4" transform="translate(1976.05 1521.03)">System Admin Misc ?</text><g id="Tarjeta-22" data-name="Tarjeta"><rect id="Fondo-43" data-name="Fondo" class="cls-7" x="1966.56" y="1289.39" width="200" height="200" rx="4"/><g id="Cuadrícula-4" data-name="Cuadrícula"><rect id="Rectángulo-11" data-name="Rectángulo" class="cls-10" x="2103.56" y="1432.39" width="53" height="47" rx="2"/><rect id="Rectángulo-12" data-name="Rectángulo" class="cls-10" x="2040.56" y="1432.39" width="53" height="47" rx="2"/><rect id="Rectángulo-13" data-name="Rectángulo" class="cls-10" x="1976.56" y="1432.39" width="53" height="47" rx="2"/><rect id="Rectángulo-14" data-name="Rectángulo" class="cls-10" x="2103.56" y="1374.39" width="53" height="47" rx="2"/><rect id="Rectángulo-15" data-name="Rectángulo" class="cls-10" x="2040.56" y="1374.39" width="53" height="47" rx="2"/><rect id="Rectángulo-16" data-name="Rectángulo" class="cls-10" x="1976.56" y="1374.39" width="53" height="47" rx="2"/><rect id="Rectángulo-17" data-name="Rectángulo" class="cls-10" x="2103.56" y="1316.39" width="53" height="47" rx="2"/><rect id="Rectángulo-18" data-name="Rectángulo" class="cls-10" x="2040.56" y="1316.39" width="53" height="47" rx="2"/><rect id="Rectángulo-19" data-name="Rectángulo" class="cls-10" x="1976.56" y="1316.39" width="53" height="47" rx="2"/></g><g id="Barra_superior-20" data-name="Barra superior"><path id="Fondo-44" data-name="Fondo" class="cls-20" d="M1970.56,1289.39h192a4,4,0,0,1,4,4v13h-200v-13A4,4,0,0,1,1970.56,1289.39Z"/><circle id="Óvalo-58" data-name="Óvalo" class="cls-21" cx="1995.45" cy="1298.63" r="3"/><circle id="Óvalo-59" data-name="Óvalo" class="cls-21" cx="1985.45" cy="1298.63" r="3"/><circle id="Óvalo-60" data-name="Óvalo" class="cls-21" cx="1975.45" cy="1298.63" r="3"/></g></g><text id="Contactos-2" data-name="Contactos" class="cls-4" transform="translate(1433.61 1524.64)">Map View</text><g id="Tarjeta-23" data-name="Tarjeta"><rect id="Fondo-45" data-name="Fondo" class="cls-7" x="1373.36" y="1293.45" width="200" height="200" rx="4"/><rect id="Texto-41" data-name="Texto" class="cls-8" x="1518.36" y="1348.47" width="45" height="8" rx="2"/><rect id="Texto-42" data-name="Texto" class="cls-8" x="1518.36" y="1335.47" width="45" height="8" rx="2"/><rect id="Texto-43" data-name="Texto" class="cls-8" x="1451.36" y="1348.47" width="45" height="8" rx="2"/><rect id="Texto-44" data-name="Texto" class="cls-8" x="1451.36" y="1335.47" width="45" height="8" rx="2"/><rect id="Texto-45" data-name="Texto" class="cls-8" x="1383.36" y="1348.47" width="45" height="8" rx="2"/><rect id="Texto-46" data-name="Texto" class="cls-8" x="1383.36" y="1335.47" width="45" height="8" rx="2"/><rect id="Texto-47" data-name="Texto" class="cls-8" x="1422.85" y="1318.09" width="100" height="8" rx="2"/><g id="Mapa-3" data-name="Mapa"><g id="Ilustración_de_mapa-2" data-name="Ilustración de mapa"><rect id="Máscara-6" data-name="Máscara" class="cls-10" x="1373.87" y="1364.06" width="200" height="117.4"/><g id="Mapa-4" data-name="Mapa"><g class="cls-31"><g id="Rectángulo-20" data-name="Rectángulo"><path class="cls-19" d="M1395,1584.83l65.81-46a1.83,1.83,0,0,1,2.74.89l33.5,70.23a2.71,2.71,0,0,1-.74,3.3l-65.81,46a1.83,1.83,0,0,1-2.74-.89l-33.5-70.23A2.7,2.7,0,0,1,1395,1584.83Z"/><path class="cls-19" d="M1351.53,1493.63l65.81-46a1.83,1.83,0,0,1,2.74.88l33.5,70.23a2.72,2.72,0,0,1-.74,3.31l-65.81,46a1.83,1.83,0,0,1-2.74-.88l-33.5-70.23A2.72,2.72,0,0,1,1351.53,1493.63Z"/><path class="cls-19" d="M1308,1402.44l65.81-46a1.83,1.83,0,0,1,2.74.88l33.5,70.23a2.72,2.72,0,0,1-.74,3.31l-65.81,46a1.83,1.83,0,0,1-2.74-.89l-33.5-70.22A2.72,2.72,0,0,1,1308,1402.44Z"/><path class="cls-19" d="M1488.66,1548.74l65.82-46a1.82,1.82,0,0,1,2.73.88l23,48.22a2.7,2.7,0,0,1-.73,3.31l-65.82,46a1.82,1.82,0,0,1-2.73-.89l-23-48.21A2.73,2.73,0,0,1,1488.66,1548.74Z"/><path class="cls-19" d="M1391.16,1344.34l65.82-46a1.82,1.82,0,0,1,2.73.88l23,48.22a2.7,2.7,0,0,1-.73,3.31l-65.82,46a1.82,1.82,0,0,1-2.73-.88l-23-48.22A2.73,2.73,0,0,1,1391.16,1344.34Z"/><path class="cls-19" d="M1423.66,1412.47l65.82-46a1.82,1.82,0,0,1,2.73.89l56,117.4a2.69,2.69,0,0,1-.73,3.3l-65.82,46a1.83,1.83,0,0,1-2.73-.89l-56-117.4A2.73,2.73,0,0,1,1423.66,1412.47Z"/><path class="cls-19" d="M1537.94,1422.07l65.81-46a1.84,1.84,0,0,1,2.74.89l56,117.4a2.7,2.7,0,0,1-.74,3.3l-65.81,46a1.83,1.83,0,0,1-2.74-.89l-56-117.4A2.71,2.71,0,0,1,1537.94,1422.07Z"/><path class="cls-19" d="M1473.44,1286.85l65.81-46a1.83,1.83,0,0,1,2.74.88l56,117.4a2.72,2.72,0,0,1-.74,3.31l-65.81,46a1.83,1.83,0,0,1-2.74-.88l-56-117.4A2.72,2.72,0,0,1,1473.44,1286.85Z"/></g></g></g></g><path id="Punto-11" data-name="Punto" class="cls-2" d="M1442.74,1415.13a4,4,0,1,1,4.08-4,4.06,4.06,0,0,1-4.08,4m0-10.22a5.63,5.63,0,0,0-5.65,5.59c0,2.39,3.38,7.38,4.91,9.51a.92.92,0,0,0,1.48,0c1.53-2.13,4.91-7.12,4.91-9.51a5.63,5.63,0,0,0-5.65-5.59"/><path id="Punto-12" data-name="Punto" class="cls-2" d="M1485.63,1398.79a4,4,0,1,1,4.08-4,4.06,4.06,0,0,1-4.08,4m0-10.22a5.62,5.62,0,0,0-5.65,5.59c0,2.39,3.38,7.37,4.91,9.51a.92.92,0,0,0,1.48,0c1.53-2.14,4.92-7.12,4.92-9.51a5.62,5.62,0,0,0-5.66-5.59"/><path id="Punto-13" data-name="Punto" class="cls-2" d="M1474.91,1418.19a4,4,0,1,1,4.08-4,4.05,4.05,0,0,1-4.08,4m0-10.21a5.62,5.62,0,0,0-5.65,5.59c0,2.39,3.38,7.37,4.91,9.5a.91.91,0,0,0,1.48,0c1.53-2.13,4.91-7.11,4.91-9.5a5.62,5.62,0,0,0-5.65-5.59"/><path id="Punto-14" data-name="Punto" class="cls-2" d="M1535.68,1390.62a4,4,0,1,1,4.08-4,4.07,4.07,0,0,1-4.08,4m0-10.22A5.62,5.62,0,0,0,1530,1386c0,2.39,3.39,7.37,4.92,9.51a.91.91,0,0,0,1.47,0c1.54-2.14,4.92-7.12,4.92-9.51a5.62,5.62,0,0,0-5.65-5.59"/><path id="Punto-15" data-name="Punto" class="cls-2" d="M1545.89,1413.6a4,4,0,1,1,4.08-4,4.06,4.06,0,0,1-4.08,4m0-10.22a5.63,5.63,0,0,0-5.66,5.59c0,2.39,3.39,7.37,4.92,9.51a.92.92,0,0,0,1.48,0c1.53-2.14,4.91-7.12,4.91-9.51a5.62,5.62,0,0,0-5.65-5.59"/><path id="Punto-16" data-name="Punto" class="cls-2" d="M1529.55,1424.32a4,4,0,1,1,4.08-4,4.05,4.05,0,0,1-4.08,4m0-10.22a5.63,5.63,0,0,0-5.66,5.59c0,2.39,3.39,7.38,4.92,9.51a.92.92,0,0,0,1.48,0c1.53-2.13,4.91-7.12,4.91-9.51a5.63,5.63,0,0,0-5.65-5.59"/><path id="Punto-17" data-name="Punto" class="cls-2" d="M1519.34,1405.94a4,4,0,1,1,4.08-4,4.07,4.07,0,0,1-4.08,4m0-10.22a5.62,5.62,0,0,0-5.66,5.59c0,2.39,3.38,7.37,4.92,9.51a.91.91,0,0,0,1.47,0c1.54-2.14,4.92-7.12,4.92-9.51a5.62,5.62,0,0,0-5.65-5.59"/><path id="Punto-18" data-name="Punto" class="cls-2" d="M1487.16,1457a4,4,0,1,1,4.09-4,4.06,4.06,0,0,1-4.09,4m0-10.22a5.63,5.63,0,0,0-5.65,5.6c0,2.38,3.38,7.37,4.92,9.5a.9.9,0,0,0,1.47,0c1.54-2.13,4.92-7.12,4.92-9.5a5.63,5.63,0,0,0-5.66-5.6"/><path id="Punto-19" data-name="Punto" class="cls-2" d="M1551,1466.19a4,4,0,1,1,4.09-4,4.05,4.05,0,0,1-4.09,4m0-10.21a5.62,5.62,0,0,0-5.65,5.59c0,2.39,3.38,7.37,4.92,9.5a.9.9,0,0,0,1.47,0c1.53-2.13,4.92-7.11,4.92-9.5A5.62,5.62,0,0,0,1551,1456"/><path id="Punto-20" data-name="Punto" class="cls-2" d="M1386.06,1382.45a4,4,0,1,1,4.08-4,4.06,4.06,0,0,1-4.08,4m0-10.22a5.63,5.63,0,0,0-5.66,5.59c0,2.39,3.39,7.37,4.92,9.51a.92.92,0,0,0,1.48,0c1.53-2.14,4.91-7.12,4.91-9.51a5.62,5.62,0,0,0-5.65-5.59"/></g><g id="Barra_superior-21" data-name="Barra superior"><path id="Fondo-46" data-name="Fondo" class="cls-11" d="M1377.36,1293.45h192a4,4,0,0,1,4,4v14h-200v-14A4,4,0,0,1,1377.36,1293.45Z"/><circle id="Óvalo-61" data-name="Óvalo" class="cls-10" cx="1402.45" cy="1302.24" r="3"/><circle id="Óvalo-62" data-name="Óvalo" class="cls-10" cx="1392.45" cy="1302.24" r="3"/><circle id="Óvalo-63" data-name="Óvalo" class="cls-10" cx="1382.45" cy="1302.24" r="3"/></g></g><path class="cls-28" d="M119.42,1164.38h4.38v31.23h-4.38Zm2.19,27.07h17.88v4.16H121.61Z"/><path class="cls-28" d="M144.64,1164.38h4l15.27,24.14-.51.56v-24.7h4.34v31.21h-4l-15.23-23.78.51-.56v24.34h-4.34Z"/><path class="cls-28" d="M196.81,1178.79v5.46a13.21,13.21,0,0,1-1.36,6.13,9.82,9.82,0,0,1-3.83,4.11,11.26,11.26,0,0,1-5.75,1.45,12,12,0,0,1-5.81-1.37,9.59,9.59,0,0,1-3.88-3.85,11.87,11.87,0,0,1-1.37-5.78v-9.22a13.26,13.26,0,0,1,1.35-6.12,9.75,9.75,0,0,1,3.84-4.1,11.23,11.23,0,0,1,5.74-1.45,10.86,10.86,0,0,1,4.95,1.15,10.45,10.45,0,0,1,3.8,3.26,12.24,12.24,0,0,1,2.06,4.87H191.8a6.7,6.7,0,0,0-1.31-2.69,6.27,6.27,0,0,0-2.17-1.72,6,6,0,0,0-2.58-.59,6.24,6.24,0,0,0-3.39.92,6.08,6.08,0,0,0-2.26,2.59,8.9,8.9,0,0,0-.79,3.88v9.22a7.39,7.39,0,0,0,.81,3.53,5.87,5.87,0,0,0,2.31,2.35,6.94,6.94,0,0,0,3.45.84,6.54,6.54,0,0,0,3.4-.87,5.76,5.76,0,0,0,2.25-2.52,9.05,9.05,0,0,0,.8-3.94V1183H186v-4.19Z"/><path class="cls-28" d="M224.22,1164.38H228l11.52,31.23h-4.73l-8.66-25.2-8.66,25.2h-4.72ZM218,1184.59h16.44v4.17H218Z"/><path class="cls-28" d="M244.2,1164.38h4.38v31.23H244.2Zm3,27.07h7.06a7.51,7.51,0,0,0,5.37-1.8,6.63,6.63,0,0,0,1.9-5.06v-9.19a6.63,6.63,0,0,0-1.9-5.06,7.51,7.51,0,0,0-5.37-1.8h-7.06v-4.16h6.94a14.36,14.36,0,0,1,6.42,1.31,9.05,9.05,0,0,1,4.06,3.82,12.34,12.34,0,0,1,1.4,6.06v8.85a12.34,12.34,0,0,1-1.4,6.06,9.13,9.13,0,0,1-4.07,3.82,14.42,14.42,0,0,1-6.44,1.31h-6.91Z"/><path class="cls-28" d="M295.1,1164.38h4.1v31.23h-4.27v-23.39l.21,1.37-7.69,17.68H284.4L276.71,1174l.21-1.8v23.39h-4.27v-31.23h4.1l9.17,20.62Z"/><path class="cls-28" d="M311.32,1195.61h-4.38v-31.23h4.38Z"/><path class="cls-28" d="M319.05,1164.38h4l15.27,24.14-.51.56v-24.7h4.34v31.21h-4l-15.23-23.78.51-.56v24.34h-4.34Z"/><path class="cls-28" d="M366.29,1194.57a9,9,0,0,1-3.75-4,14.08,14.08,0,0,1-1.29-6.29v-19.93h4.38v20.08a7.52,7.52,0,0,0,1.72,5.29,7.28,7.28,0,0,0,9.74,0,7.48,7.48,0,0,0,1.73-5.29v-20.08h4.39v19.93a14.08,14.08,0,0,1-1.29,6.29,9,9,0,0,1-3.76,4,13.54,13.54,0,0,1-11.87,0Z"/><path class="cls-28" d="M394.76,1195.51a16.6,16.6,0,0,1-3.77-1.29,16.2,16.2,0,0,1-3.27-2.15l2.73-3.35a12.26,12.26,0,0,0,3.93,2.32,13.76,13.76,0,0,0,4.66.77,9.34,9.34,0,0,0,5.26-1.26,4,4,0,0,0,1.87-3.55v0a3.74,3.74,0,0,0-.85-2.59,5,5,0,0,0-2.19-1.42,24.12,24.12,0,0,0-3.47-.85l-.14,0-.14,0-.32-.07a32.71,32.71,0,0,1-5.1-1.21,7.14,7.14,0,0,1-3.36-2.47,8.17,8.17,0,0,1-1.4-5.1v0a9.05,9.05,0,0,1,1.3-5,8.18,8.18,0,0,1,3.79-3.12,16.29,16.29,0,0,1,9.29-.71,16.09,16.09,0,0,1,3.2,1.08,18.38,18.38,0,0,1,3.11,1.82l-2.49,3.48a14.9,14.9,0,0,0-3.56-2,10.34,10.34,0,0,0-3.55-.65,8.34,8.34,0,0,0-5,1.28,4.2,4.2,0,0,0-1.77,3.62v0a3.43,3.43,0,0,0,.91,2.53,5.58,5.58,0,0,0,2.28,1.37,34,34,0,0,0,3.79.91l.16,0,.16,0,.24,0,.24,0a25.9,25.9,0,0,1,4.73,1.38,7.36,7.36,0,0,1,3.18,2.56,8.11,8.11,0,0,1,1.28,4.85v0a8.61,8.61,0,0,1-1.35,4.89,8.45,8.45,0,0,1-3.92,3.09,16.16,16.16,0,0,1-6.2,1.07A21.05,21.05,0,0,1,394.76,1195.51Z"/><path class="cls-28" d="M416.31,1164.38h4.39v31.23h-4.39Zm2.13,0h17.94v4.16H418.44Zm0,13.64H434v4.17H418.44Zm0,13.43h17.94v4.16H418.44Z"/><path class="cls-28" d="M442.61,1164.35H447v31.26h-4.38Zm1.91,13.88h10.66a4.09,4.09,0,0,0,2.21-.6,3.9,3.9,0,0,0,1.49-1.71,5.82,5.82,0,0,0,.53-2.54,5.9,5.9,0,0,0-.53-2.55,3.94,3.94,0,0,0-1.48-1.71,4.1,4.1,0,0,0-2.22-.6H444.52v-4.17H455a9.87,9.87,0,0,1,4.76,1.12,7.87,7.87,0,0,1,3.17,3.17,10.44,10.44,0,0,1,0,9.47,7.85,7.85,0,0,1-3.19,3.17,9.64,9.64,0,0,1-4.73,1.12H444.52Zm8.51,3.2,4.36-1,8,15.16h-5.2Z"/><path class="cls-28" d="M488.22,1195.51a16.43,16.43,0,0,1-3.77-1.29,16.26,16.26,0,0,1-3.28-2.15l2.73-3.35a12.48,12.48,0,0,0,3.93,2.32,13.86,13.86,0,0,0,4.67.77,9.36,9.36,0,0,0,5.26-1.26,4,4,0,0,0,1.87-3.55v0a3.74,3.74,0,0,0-.85-2.59,5.12,5.12,0,0,0-2.19-1.42,24.46,24.46,0,0,0-3.47-.85l-.14,0-.14,0-.32-.07a32.71,32.71,0,0,1-5.1-1.21,7.12,7.12,0,0,1-3.37-2.47,8.17,8.17,0,0,1-1.39-5.1v0a9.05,9.05,0,0,1,1.3-5,8.13,8.13,0,0,1,3.79-3.12,15,15,0,0,1,6-1.08,15.17,15.17,0,0,1,3.3.37,16.09,16.09,0,0,1,3.2,1.08,18.78,18.78,0,0,1,3.11,1.82l-2.5,3.48a14.66,14.66,0,0,0-3.55-2,10.35,10.35,0,0,0-3.56-.65,8.32,8.32,0,0,0-5,1.28,4.2,4.2,0,0,0-1.77,3.62v0a3.43,3.43,0,0,0,.91,2.53,5.58,5.58,0,0,0,2.28,1.37,34,34,0,0,0,3.79.91l.16,0,.16,0,.24,0,.23,0a26.27,26.27,0,0,1,4.74,1.38,7.36,7.36,0,0,1,3.18,2.56,8.18,8.18,0,0,1,1.28,4.85v0a8.61,8.61,0,0,1-1.35,4.89,8.48,8.48,0,0,1-3.93,3.09,16.11,16.11,0,0,1-6.19,1.07A21,21,0,0,1,488.22,1195.51Z"/><path class="cls-28" d="M514.15,1195.61h-4.38v-31.23h4.38Z"/><path class="cls-28" d="M519.31,1164.38h22v4.16h-22Zm8.83,2.55h4.38v28.68h-4.38Z"/><path class="cls-28" d="M545.65,1164.38H550v31.23h-4.38Zm2.13,0h17.94v4.16H547.78Zm0,13.64h15.57v4.17H547.78Zm0,13.43h17.94v4.16H547.78Z"/><path class="cls-28" d="M594.4,1164.38h4.1v31.23h-4.27v-23.39l.21,1.37-7.69,17.68h-3L576,1174l.21-1.8v23.39H572v-31.23h4.1l9.17,20.62Z"/><path class="cls-28" d="M614.31,1164.38h3.74l11.52,31.23h-4.73l-8.66-25.2-8.66,25.2H602.8Zm-6.21,20.21h16.44v4.17H608.1Z"/><path class="cls-28" d="M634.29,1164.38h4.39v31.23h-4.39Zm2.26,14.95h10a4.57,4.57,0,0,0,2.49-.67,4.4,4.4,0,0,0,1.67-1.89,6.42,6.42,0,0,0,.59-2.81,6.52,6.52,0,0,0-.59-2.84,4.44,4.44,0,0,0-4.16-2.58h-10v-4.16h9.84a9.85,9.85,0,0,1,4.92,1.19,8.22,8.22,0,0,1,3.3,3.36,11.35,11.35,0,0,1,0,10,8.17,8.17,0,0,1-3.3,3.34,10,10,0,0,1-4.92,1.19h-9.84Z"/><path class="cls-28" d="M673.72,1160.68h4.17v41.94h-4.17Zm2.15,0h6v4h-6Zm0,38h6v4h-6Z"/><path class="cls-28" d="M686.44,1164.38h4.38v31.23h-4.38Zm3,27.07h7.07a7.5,7.5,0,0,0,5.36-1.8,6.6,6.6,0,0,0,1.9-5.06v-9.19a6.6,6.6,0,0,0-1.9-5.06,7.5,7.5,0,0,0-5.36-1.8H689.4v-4.16h6.94a14.3,14.3,0,0,1,6.42,1.31,9.05,9.05,0,0,1,4.06,3.82,12.23,12.23,0,0,1,1.4,6.06v8.85a12.23,12.23,0,0,1-1.4,6.06,9.08,9.08,0,0,1-4.07,3.82,14.38,14.38,0,0,1-6.43,1.31H689.4Z"/><path class="cls-28" d="M714.88,1164.35h4.38v31.26h-4.38Zm1.91,13.88h10.66a4.09,4.09,0,0,0,2.21-.6,4,4,0,0,0,1.5-1.71,5.82,5.82,0,0,0,.52-2.54,5.9,5.9,0,0,0-.52-2.55,4,4,0,0,0-1.49-1.71,4.08,4.08,0,0,0-2.22-.6H716.79v-4.17h10.49a9.87,9.87,0,0,1,4.76,1.12,8,8,0,0,1,3.18,3.17,10.53,10.53,0,0,1,0,9.47,7.91,7.91,0,0,1-3.19,3.17,9.71,9.71,0,0,1-4.74,1.12H716.79Zm8.51,3.2,4.36-1,8,15.16h-5.19Z"/><path class="cls-28" d="M751,1164.38h3.73l11.52,31.23h-4.73l-8.65-25.2-8.66,25.2h-4.73Zm-6.21,20.21h16.43v4.17H744.79Z"/><path class="cls-28" d="M771,1164.38h4.38v31.23H771Zm2.15,0h17.51v4.16H773.13Zm0,13.92h15.14v4.17H773.13Z"/><path class="cls-28" d="M793.64,1164.38h22.05v4.16H793.64Zm8.83,2.55h4.39v28.68h-4.39Z"/><path class="cls-28" d="M815.9,1160.68H822v4H815.9Zm0,38H822v4H815.9Zm4-38h4.17v41.94h-4.17Z"/><text id="Pago_n._1-3" data-name="Pago n.º 1" class="cls-4" transform="translate(1451.83 1864.33)">Add New Reco<tspan class="cls-18" x="113.75" y="0">r</tspan><tspan x="119.59" y="0">d</tspan></text><g id="Tarjeta-24" data-name="Tarjeta"><rect id="Fondo-47" data-name="Fondo" class="cls-7" x="1414.64" y="1633.66" width="200" height="200" rx="4"/><rect id="Botón-9" data-name="Botón" class="cls-2" x="1465.64" y="1803.66" width="102" height="20" rx="2"/><g id="Tarjeta-25" data-name="Tarjeta"><path id="Fondo-48" data-name="Fondo" class="cls-19" d="M1423.59,1652.73H1606a8.88,8.88,0,0,1,8.9,8.87v124.19a8.88,8.88,0,0,1-8.9,8.87H1423.59a8.88,8.88,0,0,1-8.89-8.87V1661.6A8.88,8.88,0,0,1,1423.59,1652.73Z"/><rect id="Entrada-17" data-name="Entrada" class="cls-13" x="1519.64" y="1752.66" width="75" height="20" rx="2"/><rect id="Entrada-18" data-name="Entrada" class="cls-13" x="1434.64" y="1752.66" width="75" height="20" rx="2"/><rect id="Entrada-19" data-name="Entrada" class="cls-13" x="1434.64" y="1722.66" width="160" height="20" rx="2"/><rect id="Entrada-20" data-name="Entrada" class="cls-13" x="1519.64" y="1693.43" width="75" height="20" rx="2"/><rect id="Entrada-21" data-name="Entrada" class="cls-13" x="1434.64" y="1693.43" width="75" height="20" rx="2"/><rect id="Entrada-22" data-name="Entrada" class="cls-13" x="1434.64" y="1663.43" width="160" height="20" rx="2"/></g><g id="Barra_superior-22" data-name="Barra superior"><path id="Fondo-49" data-name="Fondo" class="cls-20" d="M1418.64,1633.66h192a4,4,0,0,1,4,4v13h-200v-13A4,4,0,0,1,1418.64,1633.66Z"/><circle id="Óvalo-64" data-name="Óvalo" class="cls-21" cx="1443.73" cy="1642.95" r="3"/><circle id="Óvalo-65" data-name="Óvalo" class="cls-21" cx="1433.73" cy="1642.95" r="3"/><circle id="Óvalo-66" data-name="Óvalo" class="cls-21" cx="1423.73" cy="1642.95" r="3"/></g></g><text id="Pago_n._1-4" data-name="Pago n.º 1" class="cls-22" transform="translate(1740.92 1864.33)">E<tspan class="cls-6" x="9.69" y="0">dit Existing Reco</tspan><tspan class="cls-18" x="138.36" y="0">r</tspan><tspan class="cls-23" x="144.2" y="0">d</tspan></text><g id="Tarjeta-26" data-name="Tarjeta"><rect id="Fondo-50" data-name="Fondo" class="cls-7" x="1719.49" y="1633.66" width="200" height="200" rx="4"/><rect id="Botón-10" data-name="Botón" class="cls-2" x="1770.49" y="1803.66" width="102" height="20" rx="2"/><g id="Tarjeta-27" data-name="Tarjeta"><path id="Fondo-51" data-name="Fondo" class="cls-19" d="M1728.45,1652.73h182.37a8.88,8.88,0,0,1,8.9,8.87v124.19a8.88,8.88,0,0,1-8.9,8.87H1728.45a8.88,8.88,0,0,1-8.9-8.87V1661.6A8.88,8.88,0,0,1,1728.45,1652.73Z"/><rect id="Entrada-23" data-name="Entrada" class="cls-13" x="1824.49" y="1752.66" width="75" height="20" rx="2"/><rect id="Entrada-24" data-name="Entrada" class="cls-13" x="1739.49" y="1752.66" width="75" height="20" rx="2"/><rect id="Entrada-25" data-name="Entrada" class="cls-13" x="1739.49" y="1722.66" width="160" height="20" rx="2"/><rect id="Entrada-26" data-name="Entrada" class="cls-13" x="1824.49" y="1693.43" width="75" height="20" rx="2"/><rect id="Entrada-27" data-name="Entrada" class="cls-13" x="1739.49" y="1693.43" width="75" height="20" rx="2"/><rect id="Entrada-28" data-name="Entrada" class="cls-13" x="1739.49" y="1663.43" width="160" height="20" rx="2"/></g><g id="Barra_superior-23" data-name="Barra superior"><path id="Fondo-52" data-name="Fondo" class="cls-20" d="M1723.49,1633.66h192a4,4,0,0,1,4,4v13h-200v-13A4,4,0,0,1,1723.49,1633.66Z"/><circle id="Óvalo-67" data-name="Óvalo" class="cls-21" cx="1748.58" cy="1642.95" r="3"/><circle id="Óvalo-68" data-name="Óvalo" class="cls-21" cx="1738.58" cy="1642.95" r="3"/><circle id="Óvalo-69" data-name="Óvalo" class="cls-21" cx="1728.58" cy="1642.95" r="3"/></g></g><rect class="cls-29" x="1372.28" y="1583.79" width="592.34" height="322.72"/><path class="cls-30" d="M1387.2,1553.28h2l6.28,17h-2.58l-4.72-13.74-4.73,13.74h-2.57Zm-3.39,11h9v2.27h-9Z"/><path class="cls-30" d="M1399.44,1570a3.64,3.64,0,0,1-1.44-1.69,6.53,6.53,0,0,1-.49-2.67v-2.68a6.77,6.77,0,0,1,.48-2.69,3.63,3.63,0,0,1,1.4-1.69,4,4,0,0,1,2.21-.58,3.64,3.64,0,0,1,2,.56,4.19,4.19,0,0,1,1.45,1.58l-.25,2.49a2.87,2.87,0,0,0-.28-1.33,2,2,0,0,0-.81-.84,2.74,2.74,0,0,0-1.3-.28,2.29,2.29,0,0,0-1.83.74,3,3,0,0,0-.65,2.07v2.65a3,3,0,0,0,.65,2,2.34,2.34,0,0,0,1.83.72,2.74,2.74,0,0,0,1.3-.29,2,2,0,0,0,.81-.87,2.91,2.91,0,0,0,.28-1.34l.17,2.56a3.42,3.42,0,0,1-1.19,1.51,3.31,3.31,0,0,1-2,.61A4.25,4.25,0,0,1,1399.44,1570Zm5.33-16.67h2.4v17h-2.4Z"/><path class="cls-30" d="M1412.37,1570a3.68,3.68,0,0,1-1.43-1.69,6.53,6.53,0,0,1-.49-2.67v-2.68a6.77,6.77,0,0,1,.48-2.69,3.57,3.57,0,0,1,1.4-1.69,4,4,0,0,1,2.21-.58,3.67,3.67,0,0,1,2,.56,4.19,4.19,0,0,1,1.45,1.58l-.25,2.49a2.87,2.87,0,0,0-.28-1.33,2,2,0,0,0-.81-.84,2.74,2.74,0,0,0-1.3-.28,2.28,2.28,0,0,0-1.83.74,3,3,0,0,0-.65,2.07v2.65a2.91,2.91,0,0,0,.65,2,2.33,2.33,0,0,0,1.83.72,2.74,2.74,0,0,0,1.3-.29,2,2,0,0,0,.81-.87,2.91,2.91,0,0,0,.28-1.34l.17,2.56a3.49,3.49,0,0,1-1.19,1.51,3.31,3.31,0,0,1-2,.61A4.25,4.25,0,0,1,1412.37,1570Zm5.34-16.67h2.39v17h-2.39Z"/><path class="cls-30" d="M1424,1573.56h-2.29l7.91-22.29h2.29Z"/><path class="cls-30" d="M1433.05,1553.28h2.39v17h-2.39Zm1.16,0H1444v2.28h-9.79Zm0,7.45h8.5V1563h-8.5Zm0,7.32H1444v2.27h-9.79Z"/><path class="cls-30" d="M1448.74,1570a3.64,3.64,0,0,1-1.44-1.69,6.53,6.53,0,0,1-.49-2.67v-2.68a6.77,6.77,0,0,1,.48-2.69,3.63,3.63,0,0,1,1.4-1.69,4,4,0,0,1,2.21-.58,3.64,3.64,0,0,1,2,.56,4.19,4.19,0,0,1,1.45,1.58l-.24,2.49a2.87,2.87,0,0,0-.29-1.33,1.93,1.93,0,0,0-.81-.84,2.73,2.73,0,0,0-1.29-.28,2.3,2.3,0,0,0-1.84.74,3,3,0,0,0-.65,2.07v2.65a3,3,0,0,0,.65,2,2.35,2.35,0,0,0,1.84.72,2.73,2.73,0,0,0,1.29-.29,1.9,1.9,0,0,0,.81-.87,2.91,2.91,0,0,0,.29-1.34l.16,2.56a3.42,3.42,0,0,1-1.19,1.51,3.31,3.31,0,0,1-2,.61A4.25,4.25,0,0,1,1448.74,1570Zm5.34-16.67h2.39v17h-2.39Z"/><path class="cls-30" d="M1460.1,1553.28h2.39v2.39h-2.39Zm0,4.88h2.39v12.16h-2.39Z"/><path class="cls-30" d="M1465.19,1558.16h5.48v2.15h-5.48Zm1.93,11.41a3.72,3.72,0,0,1-.68-2.41v-12.54h2.39v12.56a1.13,1.13,0,0,0,.18.69.58.58,0,0,0,.51.24h1.15v2.27h-1.38A2.69,2.69,0,0,1,1467.12,1569.57Z"/><path class="cls-30" d="M1480.63,1553.28H1483v17h-2.39Zm1.23,8.16h5.45a2.4,2.4,0,0,0,2.27-1.39,3.89,3.89,0,0,0,0-3.09,2.43,2.43,0,0,0-2.27-1.4h-5.45v-2.28h5.37a5.43,5.43,0,0,1,2.68.65,4.55,4.55,0,0,1,1.8,1.84,6.19,6.19,0,0,1,0,5.48,4.51,4.51,0,0,1-1.8,1.82,5.42,5.42,0,0,1-2.68.64h-5.37Z"/><path class="cls-30" d="M1495.28,1569.57a3.49,3.49,0,0,1-1.11-2.83,3.42,3.42,0,0,1,1-2.71,4.51,4.51,0,0,1,3.08-.9h3.45l.17,1.92h-3.61a2,2,0,0,0-1.4.42,1.61,1.61,0,0,0-.46,1.27,1.59,1.59,0,0,0,.61,1.37,3.17,3.17,0,0,0,1.87.44,5.27,5.27,0,0,0,2-.29,1,1,0,0,0,.68-.91l.24,1.71a2.84,2.84,0,0,1-.77.81,3.31,3.31,0,0,1-1.08.47,5.21,5.21,0,0,1-1.37.16A5.14,5.14,0,0,1,1495.28,1569.57Zm6.34-7a2.58,2.58,0,0,0-.64-1.86,2.41,2.41,0,0,0-1.81-.66,4.89,4.89,0,0,0-1.42.22,4.14,4.14,0,0,0-1.24.63l-1.75-1.2a4.5,4.5,0,0,1,1.83-1.29,6.53,6.53,0,0,1,2.51-.47,5.73,5.73,0,0,1,2.59.54,3.71,3.71,0,0,1,1.64,1.54,5,5,0,0,1,.56,2.45v7.81h-2.27Z"/><path class="cls-30" d="M1509.1,1570a3.57,3.57,0,0,1-1.43-1.69,6.52,6.52,0,0,1-.5-2.67v-2.68a6.77,6.77,0,0,1,.48-2.69,3.63,3.63,0,0,1,1.4-1.69,4,4,0,0,1,2.21-.58,3.7,3.7,0,0,1,2,.56,4.19,4.19,0,0,1,1.45,1.58l-.25,2.49a2.87,2.87,0,0,0-.28-1.33,2,2,0,0,0-.82-.84,2.67,2.67,0,0,0-1.29-.28,2.31,2.31,0,0,0-1.84.74,3,3,0,0,0-.65,2.07v2.65a3,3,0,0,0,.65,2,2.37,2.37,0,0,0,1.84.72,2.67,2.67,0,0,0,1.29-.29,2,2,0,0,0,.82-.87,2.91,2.91,0,0,0,.28-1.34l.16,2.56a3.42,3.42,0,0,1-1.19,1.51,3.28,3.28,0,0,1-2,.61A4.25,4.25,0,0,1,1509.1,1570Zm.05,4.81a3.9,3.9,0,0,1-1.68-1.44l1.61-1.46a3.38,3.38,0,0,0,1.12,1,2.81,2.81,0,0,0,1.37.36,2.88,2.88,0,0,0,2.12-.76,2.91,2.91,0,0,0,.75-2.14v-12.15h2.39V1570a6.2,6.2,0,0,1-.62,2.87,4.17,4.17,0,0,1-1.78,1.82,6,6,0,0,1-2.83.62A5.68,5.68,0,0,1,1509.15,1574.76Z"/><path class="cls-30" d="M1522.56,1569.87a4.25,4.25,0,0,1-1.82-1.86,6.41,6.41,0,0,1-.63-3v-1.37a7.2,7.2,0,0,1,.6-3.08,4.34,4.34,0,0,1,1.76-1.95,5.42,5.42,0,0,1,2.76-.67,4.43,4.43,0,0,1,2.6.76,4.77,4.77,0,0,1,1.65,2.21,9.39,9.39,0,0,1,.57,3.46v.79h-8.2v-1.92h5.92a4.09,4.09,0,0,0-.76-2.31,2.15,2.15,0,0,0-1.78-.83,2.59,2.59,0,0,0-2.1.89,3.79,3.79,0,0,0-.75,2.52v1.55a3.19,3.19,0,0,0,.8,2.32,3,3,0,0,0,2.26.81,3.65,3.65,0,0,0,1.44-.3,4,4,0,0,0,1.28-.82l1.57,1.57a6.46,6.46,0,0,1-2,1.34,5.7,5.7,0,0,1-2.26.48A6.12,6.12,0,0,1,1522.56,1569.87Z"/></svg>